<svg width="1719" height="335" viewBox="0 0 1719 335" fill="none" xmlns="http://www.w3.org/2000/svg">
<g filter="url(#filter0_d_101_4)">
<mask id="path-1-outside-1_101_4" maskUnits="userSpaceOnUse" x="-8" y="-10" width="1735" height="347" fill="black">
<rect fill="white" x="-8" y="-10" width="1735" height="347"/>
<path d="M206.563 215.15C206.563 230.45 204.763 244.85 201.163 258.35C197.863 271.85 191.863 283.7 183.163 293.9C174.763 303.8 163.213 311.75 148.513 317.75C134.113 323.45 115.813 326.3 93.6127 326.3C73.2127 326.3 55.6627 323.9 40.9627 319.1C26.2627 314 14.1127 308.15 4.5127 301.55L27.9127 247.1C36.6127 252.2 45.9127 256.7 55.8127 260.6C65.7127 264.5 76.5127 266.45 88.2127 266.45C105.313 266.45 117.613 262.25 125.113 253.85C132.613 245.45 136.363 231.35 136.363 211.55V8.14999H206.563V215.15ZM482.546 259.7V320H274.196V8.14999H344.396V259.7H482.546ZM582.228 320C569.928 293.9 557.778 266.75 545.778 238.55C533.778 210.35 522.378 182.45 511.578 154.85C500.778 127.25 490.728 100.85 481.428 75.65C472.428 50.45 464.628 27.95 458.028 8.14999H535.428C541.428 26.15 547.878 45.65 554.778 66.65C561.978 87.35 569.178 108.05 576.378 128.75C583.878 149.45 591.078 169.25 597.978 188.15C604.878 207.05 611.328 223.4 617.328 237.2C623.028 223.4 629.328 207.05 636.228 188.15C643.428 169.25 650.628 149.45 657.828 128.75C665.328 108.05 672.528 87.35 679.428 66.65C686.628 45.65 693.228 26.15 699.228 8.14999H773.928C767.028 27.95 759.078 50.45 750.078 75.65C741.078 100.85 731.178 127.25 720.378 154.85C709.578 182.45 698.178 210.35 686.178 238.55C674.178 266.75 662.028 293.9 649.728 320H582.228ZM814.284 8.14999H884.484V320H814.284V8.14999ZM952.167 72.95C960.867 69.35 969.867 65.3 979.167 60.8C988.767 56 998.067 50.9 1007.07 45.5C1016.07 39.8 1024.62 33.95 1032.72 27.95C1041.12 21.65 1048.62 15.05 1055.22 8.14999H1102.02V320H1034.97V95.45C1025.97 101.45 1015.92 107 1004.82 112.1C993.717 116.9 982.917 121.1 972.417 124.7L952.167 72.95ZM1306.48 152.6C1313.38 152.6 1320.58 152 1328.08 150.8C1335.58 149.3 1341.13 147.35 1344.73 144.95V140.9C1344.73 139.7 1344.73 138.5 1344.73 137.3C1345.03 136.1 1345.18 135.05 1345.18 134.15C1344.88 123.35 1343.98 113.3 1342.48 104C1340.98 94.4 1338.43 86.15 1334.83 79.25C1331.23 72.05 1326.28 66.5 1319.98 62.6C1313.98 58.4 1306.48 56.3 1297.48 56.3C1290.28 56.3 1283.98 57.8 1278.58 60.8C1273.18 63.8 1268.83 67.7 1265.53 72.5C1262.23 77.3 1259.68 82.55 1257.88 88.25C1256.38 93.95 1255.63 99.5 1255.63 104.9C1255.63 121.1 1259.53 133.1 1267.33 140.9C1275.43 148.7 1288.48 152.6 1306.48 152.6ZM1339.33 196.25C1333.03 199.25 1325.98 201.5 1318.18 203C1310.68 204.2 1304.23 204.8 1298.83 204.8C1279.33 204.8 1262.68 202.55 1248.88 198.05C1235.08 193.25 1223.68 186.65 1214.68 178.25C1205.98 169.55 1199.53 159.2 1195.33 147.2C1191.13 135.2 1189.03 122 1189.03 107.6C1189.03 95.6 1190.98 83.3 1194.88 70.7C1199.08 58.1 1205.53 46.7 1214.23 36.5C1222.93 26 1233.88 17.45 1247.08 10.85C1260.58 3.94998 1276.78 0.499983 1295.68 0.499983C1334.38 0.499983 1363.48 12.5 1382.98 36.5C1402.78 60.2 1412.68 94.4 1412.68 139.1C1412.68 168.5 1408.78 194.45 1400.98 216.95C1393.48 239.45 1381.63 258.35 1365.43 273.65C1349.53 288.95 1329.13 300.65 1304.23 308.75C1279.33 316.55 1249.78 320.6 1215.58 320.9C1215.28 311.3 1214.83 302 1214.23 293C1213.63 284 1213.03 274.7 1212.43 265.1C1229.53 264.8 1244.98 263.6 1258.78 261.5C1272.58 259.1 1284.73 255.35 1295.23 250.25C1305.73 244.85 1314.58 237.8 1321.78 229.1C1329.28 220.4 1335.13 209.45 1339.33 196.25ZM1610.39 326.3C1559.69 326.3 1520.99 312.2 1494.29 284C1467.89 255.8 1454.69 215.75 1454.69 163.85C1454.69 138.05 1458.74 115.1 1466.84 95C1474.94 74.6 1486.04 57.5 1500.14 43.7C1514.24 29.6 1531.04 18.95 1550.54 11.75C1570.04 4.54998 1591.19 0.949977 1613.99 0.949977C1627.19 0.949977 1639.19 1.99998 1649.99 4.09999C1660.79 5.89998 1670.24 8.14998 1678.34 10.85C1686.44 13.25 1693.19 15.8 1698.59 18.5C1703.99 21.2 1707.89 23.3 1710.29 24.8L1690.04 81.5C1680.44 76.4 1669.19 72.05 1656.29 68.45C1643.69 64.85 1629.29 63.05 1613.09 63.05C1602.29 63.05 1591.64 64.85 1581.14 68.45C1570.94 72.05 1561.79 77.9 1553.69 86C1545.89 93.8 1539.59 104 1534.79 116.6C1529.99 129.2 1527.59 144.5 1527.59 162.5C1527.59 176.9 1529.09 190.4 1532.09 203C1535.39 215.3 1540.49 225.95 1547.39 234.95C1554.59 243.95 1563.89 251.15 1575.29 256.55C1586.69 261.65 1600.49 264.2 1616.69 264.2C1626.89 264.2 1636.04 263.6 1644.14 262.4C1652.24 261.2 1659.44 259.85 1665.74 258.35C1672.04 256.55 1677.59 254.6 1682.39 252.5C1687.19 250.4 1691.54 248.45 1695.44 246.65L1714.79 302.9C1704.89 308.9 1690.94 314.3 1672.94 319.1C1654.94 323.9 1634.09 326.3 1610.39 326.3Z"/>
</mask>
<path d="M206.563 215.15C206.563 230.45 204.763 244.85 201.163 258.35C197.863 271.85 191.863 283.7 183.163 293.9C174.763 303.8 163.213 311.75 148.513 317.75C134.113 323.45 115.813 326.3 93.6127 326.3C73.2127 326.3 55.6627 323.9 40.9627 319.1C26.2627 314 14.1127 308.15 4.5127 301.55L27.9127 247.1C36.6127 252.2 45.9127 256.7 55.8127 260.6C65.7127 264.5 76.5127 266.45 88.2127 266.45C105.313 266.45 117.613 262.25 125.113 253.85C132.613 245.45 136.363 231.35 136.363 211.55V8.14999H206.563V215.15ZM482.546 259.7V320H274.196V8.14999H344.396V259.7H482.546ZM582.228 320C569.928 293.9 557.778 266.75 545.778 238.55C533.778 210.35 522.378 182.45 511.578 154.85C500.778 127.25 490.728 100.85 481.428 75.65C472.428 50.45 464.628 27.95 458.028 8.14999H535.428C541.428 26.15 547.878 45.65 554.778 66.65C561.978 87.35 569.178 108.05 576.378 128.75C583.878 149.45 591.078 169.25 597.978 188.15C604.878 207.05 611.328 223.4 617.328 237.2C623.028 223.4 629.328 207.05 636.228 188.15C643.428 169.25 650.628 149.45 657.828 128.75C665.328 108.05 672.528 87.35 679.428 66.65C686.628 45.65 693.228 26.15 699.228 8.14999H773.928C767.028 27.95 759.078 50.45 750.078 75.65C741.078 100.85 731.178 127.25 720.378 154.85C709.578 182.45 698.178 210.35 686.178 238.55C674.178 266.75 662.028 293.9 649.728 320H582.228ZM814.284 8.14999H884.484V320H814.284V8.14999ZM952.167 72.95C960.867 69.35 969.867 65.3 979.167 60.8C988.767 56 998.067 50.9 1007.07 45.5C1016.07 39.8 1024.62 33.95 1032.72 27.95C1041.12 21.65 1048.62 15.05 1055.22 8.14999H1102.02V320H1034.97V95.45C1025.97 101.45 1015.92 107 1004.82 112.1C993.717 116.9 982.917 121.1 972.417 124.7L952.167 72.95ZM1306.48 152.6C1313.38 152.6 1320.58 152 1328.08 150.8C1335.58 149.3 1341.13 147.35 1344.73 144.95V140.9C1344.73 139.7 1344.73 138.5 1344.73 137.3C1345.03 136.1 1345.18 135.05 1345.18 134.15C1344.88 123.35 1343.98 113.3 1342.48 104C1340.98 94.4 1338.43 86.15 1334.83 79.25C1331.23 72.05 1326.28 66.5 1319.98 62.6C1313.98 58.4 1306.48 56.3 1297.48 56.3C1290.28 56.3 1283.98 57.8 1278.58 60.8C1273.18 63.8 1268.83 67.7 1265.53 72.5C1262.23 77.3 1259.68 82.55 1257.88 88.25C1256.38 93.95 1255.63 99.5 1255.63 104.9C1255.63 121.1 1259.53 133.1 1267.33 140.9C1275.43 148.7 1288.48 152.6 1306.48 152.6ZM1339.33 196.25C1333.03 199.25 1325.98 201.5 1318.18 203C1310.68 204.2 1304.23 204.8 1298.83 204.8C1279.33 204.8 1262.68 202.55 1248.88 198.05C1235.08 193.25 1223.68 186.65 1214.68 178.25C1205.98 169.55 1199.53 159.2 1195.33 147.2C1191.13 135.2 1189.03 122 1189.03 107.6C1189.03 95.6 1190.98 83.3 1194.88 70.7C1199.08 58.1 1205.53 46.7 1214.23 36.5C1222.93 26 1233.88 17.45 1247.08 10.85C1260.58 3.94998 1276.78 0.499983 1295.68 0.499983C1334.38 0.499983 1363.48 12.5 1382.98 36.5C1402.78 60.2 1412.68 94.4 1412.68 139.1C1412.68 168.5 1408.78 194.45 1400.98 216.95C1393.48 239.45 1381.63 258.35 1365.43 273.65C1349.53 288.95 1329.13 300.65 1304.23 308.75C1279.33 316.55 1249.78 320.6 1215.58 320.9C1215.28 311.3 1214.83 302 1214.23 293C1213.63 284 1213.03 274.7 1212.43 265.1C1229.53 264.8 1244.98 263.6 1258.78 261.5C1272.58 259.1 1284.73 255.35 1295.23 250.25C1305.73 244.85 1314.58 237.8 1321.78 229.1C1329.28 220.4 1335.13 209.45 1339.33 196.25ZM1610.39 326.3C1559.69 326.3 1520.99 312.2 1494.29 284C1467.89 255.8 1454.69 215.75 1454.69 163.85C1454.69 138.05 1458.74 115.1 1466.84 95C1474.94 74.6 1486.04 57.5 1500.14 43.7C1514.24 29.6 1531.04 18.95 1550.54 11.75C1570.04 4.54998 1591.19 0.949977 1613.99 0.949977C1627.19 0.949977 1639.19 1.99998 1649.99 4.09999C1660.79 5.89998 1670.24 8.14998 1678.34 10.85C1686.44 13.25 1693.19 15.8 1698.59 18.5C1703.99 21.2 1707.89 23.3 1710.29 24.8L1690.04 81.5C1680.44 76.4 1669.19 72.05 1656.29 68.45C1643.69 64.85 1629.29 63.05 1613.09 63.05C1602.29 63.05 1591.64 64.85 1581.14 68.45C1570.94 72.05 1561.79 77.9 1553.69 86C1545.89 93.8 1539.59 104 1534.79 116.6C1529.99 129.2 1527.59 144.5 1527.59 162.5C1527.59 176.9 1529.09 190.4 1532.09 203C1535.39 215.3 1540.49 225.95 1547.39 234.95C1554.59 243.95 1563.89 251.15 1575.29 256.55C1586.69 261.65 1600.49 264.2 1616.69 264.2C1626.89 264.2 1636.04 263.6 1644.14 262.4C1652.24 261.2 1659.44 259.85 1665.74 258.35C1672.04 256.55 1677.59 254.6 1682.39 252.5C1687.19 250.4 1691.54 248.45 1695.44 246.65L1714.79 302.9C1704.89 308.9 1690.94 314.3 1672.94 319.1C1654.94 323.9 1634.09 326.3 1610.39 326.3Z" fill="url(#paint0_linear_101_4)"/>
<path d="M201.163 258.35L191.5 255.773L191.473 255.874L191.449 255.975L201.163 258.35ZM183.163 293.9L175.554 287.411L175.546 287.42L175.538 287.43L183.163 293.9ZM148.513 317.75L152.193 327.048L152.243 327.029L152.292 327.008L148.513 317.75ZM40.9627 319.1L37.685 328.548L37.7716 328.578L37.8587 328.606L40.9627 319.1ZM4.5127 301.55L-4.67482 297.602L-7.91499 305.141L-1.15259 309.79L4.5127 301.55ZM27.9127 247.1L32.9699 238.473L23.1977 232.744L18.7252 243.152L27.9127 247.1ZM55.8127 260.6L52.1474 269.904L52.1475 269.904L55.8127 260.6ZM125.113 253.85L132.572 260.51L132.572 260.51L125.113 253.85ZM136.363 8.14999V-1.85001H126.363V8.14999H136.363ZM206.563 8.14999H216.563V-1.85001H206.563V8.14999ZM196.563 215.15C196.563 229.662 194.856 243.189 191.5 255.773L210.825 260.927C214.669 246.511 216.563 231.238 216.563 215.15H196.563ZM191.449 255.975C188.506 268.016 183.203 278.443 175.554 287.411L190.771 300.389C200.522 288.957 207.22 275.684 210.877 260.725L191.449 255.975ZM175.538 287.43C168.384 295.862 158.273 302.965 144.734 308.492L152.292 327.008C168.152 320.535 181.142 311.738 190.788 300.37L175.538 287.43ZM144.832 308.452C131.994 313.534 115.054 316.3 93.6127 316.3V336.3C116.571 336.3 136.231 333.366 152.193 327.048L144.832 308.452ZM93.6127 316.3C73.951 316.3 57.5029 313.981 44.0667 309.594L37.8587 328.606C53.8225 333.819 72.4744 336.3 93.6127 336.3V316.3ZM44.2404 309.652C30.1226 304.754 18.8402 299.265 10.178 293.31L-1.15259 309.79C9.38515 317.035 22.4028 323.246 37.685 328.548L44.2404 309.652ZM13.7002 305.498L37.1002 251.048L18.7252 243.152L-4.67482 297.602L13.7002 305.498ZM22.8555 255.727C32.025 261.102 41.7929 265.825 52.1474 269.904L59.4779 251.296C50.0325 247.575 41.2004 243.298 32.9699 238.473L22.8555 255.727ZM52.1475 269.904C63.3257 274.308 75.3832 276.45 88.2127 276.45V256.45C77.6422 256.45 68.0997 254.692 59.4779 251.296L52.1475 269.904ZM88.2127 276.45C106.683 276.45 122.373 271.933 132.572 260.51L117.653 247.19C112.852 252.567 103.943 256.45 88.2127 256.45V276.45ZM132.572 260.51C142.564 249.32 146.363 232.114 146.363 211.55H126.363C126.363 230.586 122.662 241.58 117.653 247.19L132.572 260.51ZM146.363 211.55V8.14999H126.363V211.55H146.363ZM136.363 18.15H206.563V-1.85001H136.363V18.15ZM196.563 8.14999V215.15H216.563V8.14999H196.563ZM482.546 259.7H492.546V249.7H482.546V259.7ZM482.546 320V330H492.546V320H482.546ZM274.196 320H264.196V330H274.196V320ZM274.196 8.14999V-1.85001H264.196V8.14999H274.196ZM344.396 8.14999H354.396V-1.85001H344.396V8.14999ZM344.396 259.7H334.396V269.7H344.396V259.7ZM472.546 259.7V320H492.546V259.7H472.546ZM482.546 310H274.196V330H482.546V310ZM284.196 320V8.14999H264.196V320H284.196ZM274.196 18.15H344.396V-1.85001H274.196V18.15ZM334.396 8.14999V259.7H354.396V8.14999H334.396ZM344.396 269.7H482.546V249.7H344.396V269.7ZM582.228 320L573.182 324.263L575.886 330H582.228V320ZM545.778 238.55L554.98 234.634L554.98 234.634L545.778 238.55ZM511.578 154.85L520.891 151.206L520.891 151.206L511.578 154.85ZM481.428 75.65L472.011 79.0133L472.029 79.0629L472.047 79.1122L481.428 75.65ZM458.028 8.14999V-1.85001H444.154L448.541 11.3123L458.028 8.14999ZM535.428 8.14999L544.915 4.98771L542.636 -1.85001H535.428V8.14999ZM554.778 66.65L545.278 69.7715L545.305 69.8536L545.333 69.9352L554.778 66.65ZM576.378 128.75L566.933 132.035L566.954 132.096L566.976 132.156L576.378 128.75ZM597.978 188.15L607.372 184.721L607.372 184.721L597.978 188.15ZM617.328 237.2L608.158 241.187L617.564 262.823L626.571 241.018L617.328 237.2ZM636.228 188.15L626.883 184.59L626.859 184.655L626.835 184.721L636.228 188.15ZM657.828 128.75L648.426 125.344L648.405 125.404L648.383 125.465L657.828 128.75ZM679.428 66.65L669.969 63.4067L669.955 63.4472L669.942 63.4877L679.428 66.65ZM699.228 8.14999V-1.85001H692.021L689.741 4.98772L699.228 8.14999ZM773.928 8.14999L783.371 11.4407L788.003 -1.85001H773.928V8.14999ZM750.078 75.65L759.496 79.0133L759.496 79.0133L750.078 75.65ZM720.378 154.85L729.691 158.494L729.691 158.494L720.378 154.85ZM686.178 238.55L676.977 234.634L676.977 234.634L686.178 238.55ZM649.728 320V330H656.071L658.774 324.263L649.728 320ZM591.274 315.737C579.031 289.759 566.933 262.725 554.98 234.634L536.577 242.466C548.623 270.775 560.825 298.041 573.182 324.263L591.274 315.737ZM554.98 234.634C543.017 206.521 531.654 178.712 520.891 151.206L502.266 158.494C513.103 186.188 524.54 214.179 536.577 242.466L554.98 234.634ZM520.891 151.206C510.112 123.66 500.085 97.3211 490.81 72.1878L472.047 79.1122C481.371 104.379 491.445 130.84 502.266 158.494L520.891 151.206ZM490.846 72.2866C481.863 47.1359 474.088 24.7048 467.515 4.98771L448.541 11.3123C455.169 31.1951 462.993 53.7641 472.011 79.0133L490.846 72.2866ZM458.028 18.15H535.428V-1.85001H458.028V18.15ZM525.941 11.3123C531.936 29.2967 538.382 48.783 545.278 69.7715L564.279 63.5285C557.375 42.517 550.92 23.0033 544.915 4.98771L525.941 11.3123ZM545.333 69.9352C552.533 90.6352 559.733 111.335 566.933 132.035L585.823 125.465C578.623 104.765 571.423 84.0648 564.223 63.3648L545.333 69.9352ZM566.976 132.156C574.479 152.863 581.682 172.671 588.585 191.579L607.372 184.721C600.475 165.829 593.278 146.037 585.78 125.344L566.976 132.156ZM588.585 191.579C595.532 210.609 602.056 227.154 608.158 241.187L626.499 233.213C620.6 219.646 614.224 203.491 607.372 184.721L588.585 191.579ZM626.571 241.018C632.338 227.054 638.689 210.568 645.622 191.579L626.835 184.721C619.967 203.532 613.718 219.746 608.086 233.382L626.571 241.018ZM645.573 191.71C652.811 172.712 660.044 152.82 667.273 132.035L648.383 125.465C641.213 146.08 634.046 165.788 626.883 184.59L645.573 191.71ZM667.23 132.156C674.759 111.376 681.988 90.5948 688.915 69.8123L669.942 63.4877C663.069 84.1052 655.897 104.724 648.426 125.344L667.23 132.156ZM688.888 69.8932C696.096 48.8707 702.705 29.3434 708.715 11.3123L689.741 4.98772C683.752 22.9566 677.161 42.4293 669.969 63.4067L688.888 69.8932ZM699.228 18.15H773.928V-1.85001H699.228V18.15ZM764.485 4.85924C757.596 24.6295 749.654 47.1046 740.661 72.2866L759.496 79.0133C768.502 53.7954 776.461 31.2705 783.371 11.4407L764.485 4.85924ZM740.661 72.2866C731.698 97.3832 721.833 123.689 711.066 151.206L729.691 158.494C740.523 130.811 750.459 104.317 759.496 79.0133L740.661 72.2866ZM711.066 151.206C700.303 178.712 688.94 206.521 676.977 234.634L695.38 242.466C707.417 214.179 718.854 186.188 729.691 158.494L711.066 151.206ZM676.977 234.634C665.023 262.725 652.925 289.759 640.682 315.737L658.774 324.263C671.131 298.041 683.333 270.775 695.38 242.466L676.977 234.634ZM649.728 310H582.228V330H649.728V310ZM814.284 8.14999V-1.85001H804.284V8.14999H814.284ZM884.484 8.14999H894.484V-1.85001H884.484V8.14999ZM884.484 320V330H894.484V320H884.484ZM814.284 320H804.284V330H814.284V320ZM814.284 18.15H884.484V-1.85001H814.284V18.15ZM874.484 8.14999V320H894.484V8.14999H874.484ZM884.484 310H814.284V330H884.484V310ZM824.284 320V8.14999H804.284V320H824.284ZM952.167 72.95L948.343 63.7098L939.28 67.4601L942.855 76.594L952.167 72.95ZM979.167 60.8L983.523 69.8016L983.581 69.7733L983.639 69.7443L979.167 60.8ZM1007.07 45.5L1012.21 54.0749L1012.32 54.0128L1012.42 53.9482L1007.07 45.5ZM1032.72 27.95L1038.67 35.9855L1038.69 35.9678L1038.72 35.95L1032.72 27.95ZM1055.22 8.14999V-1.85001H1050.94L1047.99 1.23776L1055.22 8.14999ZM1102.02 8.14999H1112.02V-1.85001H1102.02V8.14999ZM1102.02 320V330H1112.02V320H1102.02ZM1034.97 320H1024.97V330H1034.97V320ZM1034.97 95.45H1044.97V76.7648L1029.42 87.1295L1034.97 95.45ZM1004.82 112.1L1008.79 121.279L1008.89 121.234L1008.99 121.187L1004.82 112.1ZM972.417 124.7L963.105 128.344L966.596 137.267L975.66 134.159L972.417 124.7ZM955.991 82.1902C964.886 78.5091 974.064 74.3782 983.523 69.8016L974.811 51.7984C965.67 56.2218 956.848 60.1909 948.343 63.7098L955.991 82.1902ZM983.639 69.7443C993.463 64.8324 1002.99 59.6095 1012.21 54.0749L1001.92 36.9251C993.146 42.1905 984.071 47.1676 974.695 51.8557L983.639 69.7443ZM1012.42 53.9482C1021.61 48.1253 1030.36 42.1383 1038.67 35.9855L1026.76 19.9144C1018.87 25.7617 1010.52 31.4747 1001.72 37.0518L1012.42 53.9482ZM1038.72 35.95C1047.51 29.3537 1055.43 22.3946 1062.44 15.0622L1047.99 1.23776C1041.8 7.70537 1034.72 13.9463 1026.72 19.95L1038.72 35.95ZM1055.22 18.15H1102.02V-1.85001H1055.22V18.15ZM1092.02 8.14999V320H1112.02V8.14999H1092.02ZM1102.02 310H1034.97V330H1102.02V310ZM1044.97 320V95.45H1024.97V320H1044.97ZM1029.42 87.1295C1020.91 92.804 1011.33 98.1047 1000.64 103.013L1008.99 121.187C1020.51 115.895 1031.03 110.096 1040.51 103.77L1029.42 87.1295ZM1000.85 102.921C989.965 107.627 979.408 111.732 969.174 115.241L975.66 134.159C986.426 130.468 997.469 126.173 1008.79 121.279L1000.85 102.921ZM981.729 121.056L961.479 69.306L942.855 76.594L963.105 128.344L981.729 121.056ZM1328.08 150.8L1329.66 160.674L1329.85 160.644L1330.04 160.606L1328.08 150.8ZM1344.73 144.95L1350.28 153.27L1354.73 150.302V144.95H1344.73ZM1344.73 137.3L1335.03 134.875L1334.73 136.069V137.3H1344.73ZM1345.18 134.15H1355.18V134.011L1355.17 133.872L1345.18 134.15ZM1342.48 104L1332.6 105.544L1332.6 105.568L1332.61 105.592L1342.48 104ZM1334.83 79.25L1325.88 83.7221L1325.92 83.7992L1325.96 83.8756L1334.83 79.25ZM1319.98 62.6L1314.24 70.7923L1314.48 70.9541L1314.72 71.1026L1319.98 62.6ZM1278.58 60.8L1283.44 69.5416L1283.44 69.5416L1278.58 60.8ZM1265.53 72.5L1273.77 78.1653L1273.77 78.1653L1265.53 72.5ZM1257.88 88.25L1248.34 85.2387L1248.27 85.4702L1248.21 85.7051L1257.88 88.25ZM1267.33 140.9L1260.26 147.971L1260.32 148.038L1260.39 148.103L1267.33 140.9ZM1339.33 196.25L1348.86 199.282L1355.85 177.307L1335.03 187.221L1339.33 196.25ZM1318.18 203L1319.76 212.874L1319.91 212.85L1320.07 212.82L1318.18 203ZM1248.88 198.05L1245.59 207.495L1245.69 207.527L1245.78 207.557L1248.88 198.05ZM1214.68 178.25L1207.61 185.321L1207.73 185.443L1207.86 185.561L1214.68 178.25ZM1195.33 147.2L1185.89 150.504L1185.89 150.504L1195.33 147.2ZM1194.88 70.7L1185.39 67.5377L1185.36 67.6401L1185.33 67.7432L1194.88 70.7ZM1214.23 36.5L1221.84 42.9894L1221.88 42.9351L1221.93 42.8802L1214.23 36.5ZM1247.08 10.85L1251.55 19.7943L1251.59 19.7745L1251.63 19.7543L1247.08 10.85ZM1382.98 36.5L1375.22 42.8059L1375.26 42.8589L1375.3 42.9114L1382.98 36.5ZM1400.98 216.95L1391.53 213.675L1391.51 213.731L1391.49 213.788L1400.98 216.95ZM1365.43 273.65L1358.56 266.38L1358.53 266.412L1358.49 266.444L1365.43 273.65ZM1304.23 308.75L1307.22 318.293L1307.27 318.276L1307.32 318.259L1304.23 308.75ZM1215.58 320.9L1205.58 321.212L1205.89 330.985L1215.67 330.9L1215.58 320.9ZM1214.23 293L1224.21 292.335L1224.21 292.335L1214.23 293ZM1212.43 265.1L1212.25 255.102L1201.8 255.285L1202.45 265.724L1212.43 265.1ZM1258.78 261.5L1260.28 271.386L1260.39 271.37L1260.49 271.352L1258.78 261.5ZM1295.23 250.25L1299.6 259.245L1299.7 259.195L1299.8 259.143L1295.23 250.25ZM1321.78 229.1L1314.2 222.571L1314.14 222.647L1314.07 222.724L1321.78 229.1ZM1306.48 162.6C1313.96 162.6 1321.69 161.95 1329.66 160.674L1326.5 140.926C1319.47 142.05 1312.8 142.6 1306.48 142.6V162.6ZM1330.04 160.606C1337.99 159.016 1345.06 156.751 1350.28 153.27L1339.18 136.629C1337.2 137.949 1333.17 139.584 1326.12 140.994L1330.04 160.606ZM1354.73 144.95V140.9H1334.73V144.95H1354.73ZM1354.73 140.9C1354.73 140.898 1354.73 140.895 1354.73 140.893C1354.73 140.891 1354.73 140.888 1354.73 140.886C1354.73 140.884 1354.73 140.881 1354.73 140.879C1354.73 140.877 1354.73 140.874 1354.73 140.872C1354.73 140.87 1354.73 140.867 1354.73 140.865C1354.73 140.862 1354.73 140.86 1354.73 140.858C1354.73 140.855 1354.73 140.853 1354.73 140.851C1354.73 140.848 1354.73 140.846 1354.73 140.844C1354.73 140.841 1354.73 140.839 1354.73 140.837C1354.73 140.834 1354.73 140.832 1354.73 140.83C1354.73 140.827 1354.73 140.825 1354.73 140.823C1354.73 140.82 1354.73 140.818 1354.73 140.816C1354.73 140.813 1354.73 140.811 1354.73 140.809C1354.73 140.806 1354.73 140.804 1354.73 140.802C1354.73 140.799 1354.73 140.797 1354.73 140.795C1354.73 140.792 1354.73 140.79 1354.73 140.787C1354.73 140.785 1354.73 140.783 1354.73 140.78C1354.73 140.778 1354.73 140.776 1354.73 140.773C1354.73 140.771 1354.73 140.769 1354.73 140.766C1354.73 140.764 1354.73 140.762 1354.73 140.759C1354.73 140.757 1354.73 140.755 1354.73 140.752C1354.73 140.75 1354.73 140.748 1354.73 140.745C1354.73 140.743 1354.73 140.741 1354.73 140.738C1354.73 140.736 1354.73 140.734 1354.73 140.731C1354.73 140.729 1354.73 140.727 1354.73 140.724C1354.73 140.722 1354.73 140.72 1354.73 140.717C1354.73 140.715 1354.73 140.712 1354.73 140.71C1354.73 140.708 1354.73 140.705 1354.73 140.703C1354.73 140.701 1354.73 140.698 1354.73 140.696C1354.73 140.694 1354.73 140.691 1354.73 140.689C1354.73 140.687 1354.73 140.684 1354.73 140.682C1354.73 140.68 1354.73 140.677 1354.73 140.675C1354.73 140.673 1354.73 140.67 1354.73 140.668C1354.73 140.666 1354.73 140.663 1354.73 140.661C1354.73 140.659 1354.73 140.656 1354.73 140.654C1354.73 140.652 1354.73 140.649 1354.73 140.647C1354.73 140.645 1354.73 140.642 1354.73 140.64C1354.73 140.637 1354.73 140.635 1354.73 140.633C1354.73 140.63 1354.73 140.628 1354.73 140.626C1354.73 140.623 1354.73 140.621 1354.73 140.619C1354.73 140.616 1354.73 140.614 1354.73 140.612C1354.73 140.609 1354.73 140.607 1354.73 140.605C1354.73 140.602 1354.73 140.6 1354.73 140.598C1354.73 140.595 1354.73 140.593 1354.73 140.591C1354.73 140.588 1354.73 140.586 1354.73 140.584C1354.73 140.581 1354.73 140.579 1354.73 140.577C1354.73 140.574 1354.73 140.572 1354.73 140.57C1354.73 140.567 1354.73 140.565 1354.73 140.562C1354.73 140.56 1354.73 140.558 1354.73 140.555C1354.73 140.553 1354.73 140.551 1354.73 140.548C1354.73 140.546 1354.73 140.544 1354.73 140.541C1354.73 140.539 1354.73 140.537 1354.73 140.534C1354.73 140.532 1354.73 140.53 1354.73 140.527C1354.73 140.525 1354.73 140.523 1354.73 140.52C1354.73 140.518 1354.73 140.516 1354.73 140.513C1354.73 140.511 1354.73 140.509 1354.73 140.506C1354.73 140.504 1354.73 140.502 1354.73 140.499C1354.73 140.497 1354.73 140.495 1354.73 140.492C1354.73 140.49 1354.73 140.487 1354.73 140.485C1354.73 140.483 1354.73 140.48 1354.73 140.478C1354.73 140.476 1354.73 140.473 1354.73 140.471C1354.73 140.469 1354.73 140.466 1354.73 140.464C1354.73 140.462 1354.73 140.459 1354.73 140.457C1354.73 140.455 1354.73 140.452 1354.73 140.45C1354.73 140.448 1354.73 140.445 1354.73 140.443C1354.73 140.441 1354.73 140.438 1354.73 140.436C1354.73 140.434 1354.73 140.431 1354.73 140.429C1354.73 140.427 1354.73 140.424 1354.73 140.422C1354.73 140.42 1354.73 140.417 1354.73 140.415C1354.73 140.412 1354.73 140.41 1354.73 140.408C1354.73 140.405 1354.73 140.403 1354.73 140.401C1354.73 140.398 1354.73 140.396 1354.73 140.394C1354.73 140.391 1354.73 140.389 1354.73 140.387C1354.73 140.384 1354.73 140.382 1354.73 140.38C1354.73 140.377 1354.73 140.375 1354.73 140.373C1354.73 140.37 1354.73 140.368 1354.73 140.366C1354.73 140.363 1354.73 140.361 1354.73 140.359C1354.73 140.356 1354.73 140.354 1354.73 140.352C1354.73 140.349 1354.73 140.347 1354.73 140.345C1354.73 140.342 1354.73 140.34 1354.73 140.337C1354.73 140.335 1354.73 140.333 1354.73 140.33C1354.73 140.328 1354.73 140.326 1354.73 140.323C1354.73 140.321 1354.73 140.319 1354.73 140.316C1354.73 140.314 1354.73 140.312 1354.73 140.309C1354.73 140.307 1354.73 140.305 1354.73 140.302C1354.73 140.3 1354.73 140.298 1354.73 140.295C1354.73 140.293 1354.73 140.291 1354.73 140.288C1354.73 140.286 1354.73 140.284 1354.73 140.281C1354.73 140.279 1354.73 140.277 1354.73 140.274C1354.73 140.272 1354.73 140.27 1354.73 140.267C1354.73 140.265 1354.73 140.262 1354.73 140.26C1354.73 140.258 1354.73 140.255 1354.73 140.253C1354.73 140.251 1354.73 140.248 1354.73 140.246C1354.73 140.244 1354.73 140.241 1354.73 140.239C1354.73 140.237 1354.73 140.234 1354.73 140.232C1354.73 140.23 1354.73 140.227 1354.73 140.225C1354.73 140.223 1354.73 140.22 1354.73 140.218C1354.73 140.216 1354.73 140.213 1354.73 140.211C1354.73 140.209 1354.73 140.206 1354.73 140.204C1354.73 140.202 1354.73 140.199 1354.73 140.197C1354.73 140.195 1354.73 140.192 1354.73 140.19C1354.73 140.187 1354.73 140.185 1354.73 140.183C1354.73 140.18 1354.73 140.178 1354.73 140.176C1354.73 140.173 1354.73 140.171 1354.73 140.169C1354.73 140.166 1354.73 140.164 1354.73 140.162C1354.73 140.159 1354.73 140.157 1354.73 140.155C1354.73 140.152 1354.73 140.15 1354.73 140.148C1354.73 140.145 1354.73 140.143 1354.73 140.141C1354.73 140.138 1354.73 140.136 1354.73 140.134C1354.73 140.131 1354.73 140.129 1354.73 140.127C1354.73 140.124 1354.73 140.122 1354.73 140.12C1354.73 140.117 1354.73 140.115 1354.73 140.112C1354.73 140.11 1354.73 140.108 1354.73 140.105C1354.73 140.103 1354.73 140.101 1354.73 140.098C1354.73 140.096 1354.73 140.094 1354.73 140.091C1354.73 140.089 1354.73 140.087 1354.73 140.084C1354.73 140.082 1354.73 140.08 1354.73 140.077C1354.73 140.075 1354.73 140.073 1354.73 140.07C1354.73 140.068 1354.73 140.066 1354.73 140.063C1354.73 140.061 1354.73 140.059 1354.73 140.056C1354.73 140.054 1354.73 140.052 1354.73 140.049C1354.73 140.047 1354.73 140.045 1354.73 140.042C1354.73 140.04 1354.73 140.037 1354.73 140.035C1354.73 140.033 1354.73 140.03 1354.73 140.028C1354.73 140.026 1354.73 140.023 1354.73 140.021C1354.73 140.019 1354.73 140.016 1354.73 140.014C1354.73 140.012 1354.73 140.009 1354.73 140.007C1354.73 140.005 1354.73 140.002 1354.73 140C1354.73 139.998 1354.73 139.995 1354.73 139.993C1354.73 139.991 1354.73 139.988 1354.73 139.986C1354.73 139.984 1354.73 139.981 1354.73 139.979C1354.73 139.977 1354.73 139.974 1354.73 139.972C1354.73 139.97 1354.73 139.967 1354.73 139.965C1354.73 139.962 1354.73 139.96 1354.73 139.958C1354.73 139.955 1354.73 139.953 1354.73 139.951C1354.73 139.948 1354.73 139.946 1354.73 139.944C1354.73 139.941 1354.73 139.939 1354.73 139.937C1354.73 139.934 1354.73 139.932 1354.73 139.93C1354.73 139.927 1354.73 139.925 1354.73 139.923C1354.73 139.92 1354.73 139.918 1354.73 139.916C1354.73 139.913 1354.73 139.911 1354.73 139.909C1354.73 139.906 1354.73 139.904 1354.73 139.902C1354.73 139.899 1354.73 139.897 1354.73 139.895C1354.73 139.892 1354.73 139.89 1354.73 139.887C1354.73 139.885 1354.73 139.883 1354.73 139.88C1354.73 139.878 1354.73 139.876 1354.73 139.873C1354.73 139.871 1354.73 139.869 1354.73 139.866C1354.73 139.864 1354.73 139.862 1354.73 139.859C1354.73 139.857 1354.73 139.855 1354.73 139.852C1354.73 139.85 1354.73 139.848 1354.73 139.845C1354.73 139.843 1354.73 139.841 1354.73 139.838C1354.73 139.836 1354.73 139.834 1354.73 139.831C1354.73 139.829 1354.73 139.827 1354.73 139.824C1354.73 139.822 1354.73 139.82 1354.73 139.817C1354.73 139.815 1354.73 139.812 1354.73 139.81C1354.73 139.808 1354.73 139.805 1354.73 139.803C1354.73 139.801 1354.73 139.798 1354.73 139.796C1354.73 139.794 1354.73 139.791 1354.73 139.789C1354.73 139.787 1354.73 139.784 1354.73 139.782C1354.73 139.78 1354.73 139.777 1354.73 139.775C1354.73 139.773 1354.73 139.77 1354.73 139.768C1354.73 139.766 1354.73 139.763 1354.73 139.761C1354.73 139.759 1354.73 139.756 1354.73 139.754C1354.73 139.752 1354.73 139.749 1354.73 139.747C1354.73 139.745 1354.73 139.742 1354.73 139.74C1354.73 139.737 1354.73 139.735 1354.73 139.733C1354.73 139.73 1354.73 139.728 1354.73 139.726C1354.73 139.723 1354.73 139.721 1354.73 139.719C1354.73 139.716 1354.73 139.714 1354.73 139.712C1354.73 139.709 1354.73 139.707 1354.73 139.705C1354.73 139.702 1354.73 139.7 1354.73 139.698C1354.73 139.695 1354.73 139.693 1354.73 139.691C1354.73 139.688 1354.73 139.686 1354.73 139.684C1354.73 139.681 1354.73 139.679 1354.73 139.677C1354.73 139.674 1354.73 139.672 1354.73 139.67C1354.73 139.667 1354.73 139.665 1354.73 139.662C1354.73 139.66 1354.73 139.658 1354.73 139.655C1354.73 139.653 1354.73 139.651 1354.73 139.648C1354.73 139.646 1354.73 139.644 1354.73 139.641C1354.73 139.639 1354.73 139.637 1354.73 139.634C1354.73 139.632 1354.73 139.63 1354.73 139.627C1354.73 139.625 1354.73 139.623 1354.73 139.62C1354.73 139.618 1354.73 139.616 1354.73 139.613C1354.73 139.611 1354.73 139.609 1354.73 139.606C1354.73 139.604 1354.73 139.602 1354.73 139.599C1354.73 139.597 1354.73 139.595 1354.73 139.592C1354.73 139.59 1354.73 139.587 1354.73 139.585C1354.73 139.583 1354.73 139.58 1354.73 139.578C1354.73 139.576 1354.73 139.573 1354.73 139.571C1354.73 139.569 1354.73 139.566 1354.73 139.564C1354.73 139.562 1354.73 139.559 1354.73 139.557C1354.73 139.555 1354.73 139.552 1354.73 139.55C1354.73 139.548 1354.73 139.545 1354.73 139.543C1354.73 139.541 1354.73 139.538 1354.73 139.536C1354.73 139.534 1354.73 139.531 1354.73 139.529C1354.73 139.527 1354.73 139.524 1354.73 139.522C1354.73 139.52 1354.73 139.517 1354.73 139.515C1354.73 139.512 1354.73 139.51 1354.73 139.508C1354.73 139.505 1354.73 139.503 1354.73 139.501C1354.73 139.498 1354.73 139.496 1354.73 139.494C1354.73 139.491 1354.73 139.489 1354.73 139.487C1354.73 139.484 1354.73 139.482 1354.73 139.48C1354.73 139.477 1354.73 139.475 1354.73 139.473C1354.73 139.47 1354.73 139.468 1354.73 139.466C1354.73 139.463 1354.73 139.461 1354.73 139.459C1354.73 139.456 1354.73 139.454 1354.73 139.452C1354.73 139.449 1354.73 139.447 1354.73 139.445C1354.73 139.442 1354.73 139.44 1354.73 139.437C1354.73 139.435 1354.73 139.433 1354.73 139.43C1354.73 139.428 1354.73 139.426 1354.73 139.423C1354.73 139.421 1354.73 139.419 1354.73 139.416C1354.73 139.414 1354.73 139.412 1354.73 139.409C1354.73 139.407 1354.73 139.405 1354.73 139.402C1354.73 139.4 1354.73 139.398 1354.73 139.395C1354.73 139.393 1354.73 139.391 1354.73 139.388C1354.73 139.386 1354.73 139.384 1354.73 139.381C1354.73 139.379 1354.73 139.377 1354.73 139.374C1354.73 139.372 1354.73 139.37 1354.73 139.367C1354.73 139.365 1354.73 139.362 1354.73 139.36C1354.73 139.358 1354.73 139.355 1354.73 139.353C1354.73 139.351 1354.73 139.348 1354.73 139.346C1354.73 139.344 1354.73 139.341 1354.73 139.339C1354.73 139.337 1354.73 139.334 1354.73 139.332C1354.73 139.33 1354.73 139.327 1354.73 139.325C1354.73 139.323 1354.73 139.32 1354.73 139.318C1354.73 139.316 1354.73 139.313 1354.73 139.311C1354.73 139.309 1354.73 139.306 1354.73 139.304C1354.73 139.302 1354.73 139.299 1354.73 139.297C1354.73 139.295 1354.73 139.292 1354.73 139.29C1354.73 139.287 1354.73 139.285 1354.73 139.283C1354.73 139.28 1354.73 139.278 1354.73 139.276C1354.73 139.273 1354.73 139.271 1354.73 139.269C1354.73 139.266 1354.73 139.264 1354.73 139.262C1354.73 139.259 1354.73 139.257 1354.73 139.255C1354.73 139.252 1354.73 139.25 1354.73 139.248C1354.73 139.245 1354.73 139.243 1354.73 139.241C1354.73 139.238 1354.73 139.236 1354.73 139.234C1354.73 139.231 1354.73 139.229 1354.73 139.227C1354.73 139.224 1354.73 139.222 1354.73 139.22C1354.73 139.217 1354.73 139.215 1354.73 139.212C1354.73 139.21 1354.73 139.208 1354.73 139.205C1354.73 139.203 1354.73 139.201 1354.73 139.198C1354.73 139.196 1354.73 139.194 1354.73 139.191C1354.73 139.189 1354.73 139.187 1354.73 139.184C1354.73 139.182 1354.73 139.18 1354.73 139.177C1354.73 139.175 1354.73 139.173 1354.73 139.17C1354.73 139.168 1354.73 139.166 1354.73 139.163C1354.73 139.161 1354.73 139.159 1354.73 139.156C1354.73 139.154 1354.73 139.152 1354.73 139.149C1354.73 139.147 1354.73 139.145 1354.73 139.142C1354.73 139.14 1354.73 139.137 1354.73 139.135C1354.73 139.133 1354.73 139.13 1354.73 139.128C1354.73 139.126 1354.73 139.123 1354.73 139.121C1354.73 139.119 1354.73 139.116 1354.73 139.114C1354.73 139.112 1354.73 139.109 1354.73 139.107C1354.73 139.105 1354.73 139.102 1354.73 139.1C1354.73 139.098 1354.73 139.095 1354.73 139.093C1354.73 139.091 1354.73 139.088 1354.73 139.086C1354.73 139.084 1354.73 139.081 1354.73 139.079C1354.73 139.077 1354.73 139.074 1354.73 139.072C1354.73 139.07 1354.73 139.067 1354.73 139.065C1354.73 139.062 1354.73 139.06 1354.73 139.058C1354.73 139.055 1354.73 139.053 1354.73 139.051C1354.73 139.048 1354.73 139.046 1354.73 139.044C1354.73 139.041 1354.73 139.039 1354.73 139.037C1354.73 139.034 1354.73 139.032 1354.73 139.03C1354.73 139.027 1354.73 139.025 1354.73 139.023C1354.73 139.02 1354.73 139.018 1354.73 139.016C1354.73 139.013 1354.73 139.011 1354.73 139.009C1354.73 139.006 1354.73 139.004 1354.73 139.002C1354.73 138.999 1354.73 138.997 1354.73 138.995C1354.73 138.992 1354.73 138.99 1354.73 138.987C1354.73 138.985 1354.73 138.983 1354.73 138.98C1354.73 138.978 1354.73 138.976 1354.73 138.973C1354.73 138.971 1354.73 138.969 1354.73 138.966C1354.73 138.964 1354.73 138.962 1354.73 138.959C1354.73 138.957 1354.73 138.955 1354.73 138.952C1354.73 138.95 1354.73 138.948 1354.73 138.945C1354.73 138.943 1354.73 138.941 1354.73 138.938C1354.73 138.936 1354.73 138.934 1354.73 138.931C1354.73 138.929 1354.73 138.927 1354.73 138.924C1354.73 138.922 1354.73 138.92 1354.73 138.917C1354.73 138.915 1354.73 138.912 1354.73 138.91C1354.73 138.908 1354.73 138.905 1354.73 138.903C1354.73 138.901 1354.73 138.898 1354.73 138.896C1354.73 138.894 1354.73 138.891 1354.73 138.889C1354.73 138.887 1354.73 138.884 1354.73 138.882C1354.73 138.88 1354.73 138.877 1354.73 138.875C1354.73 138.873 1354.73 138.87 1354.73 138.868C1354.73 138.866 1354.73 138.863 1354.73 138.861C1354.73 138.859 1354.73 138.856 1354.73 138.854C1354.73 138.852 1354.73 138.849 1354.73 138.847C1354.73 138.845 1354.73 138.842 1354.73 138.84C1354.73 138.837 1354.73 138.835 1354.73 138.833C1354.73 138.83 1354.73 138.828 1354.73 138.826C1354.73 138.823 1354.73 138.821 1354.73 138.819C1354.73 138.816 1354.73 138.814 1354.73 138.812C1354.73 138.809 1354.73 138.807 1354.73 138.805C1354.73 138.802 1354.73 138.8 1354.73 138.798C1354.73 138.795 1354.73 138.793 1354.73 138.791C1354.73 138.788 1354.73 138.786 1354.73 138.784C1354.73 138.781 1354.73 138.779 1354.73 138.777C1354.73 138.774 1354.73 138.772 1354.73 138.77C1354.73 138.767 1354.73 138.765 1354.73 138.762C1354.73 138.76 1354.73 138.758 1354.73 138.755C1354.73 138.753 1354.73 138.751 1354.73 138.748C1354.73 138.746 1354.73 138.744 1354.73 138.741C1354.73 138.739 1354.73 138.737 1354.73 138.734C1354.73 138.732 1354.73 138.73 1354.73 138.727C1354.73 138.725 1354.73 138.723 1354.73 138.72C1354.73 138.718 1354.73 138.716 1354.73 138.713C1354.73 138.711 1354.73 138.709 1354.73 138.706C1354.73 138.704 1354.73 138.702 1354.73 138.699C1354.73 138.697 1354.73 138.695 1354.73 138.692C1354.73 138.69 1354.73 138.687 1354.73 138.685C1354.73 138.683 1354.73 138.68 1354.73 138.678C1354.73 138.676 1354.73 138.673 1354.73 138.671C1354.73 138.669 1354.73 138.666 1354.73 138.664C1354.73 138.662 1354.73 138.659 1354.73 138.657C1354.73 138.655 1354.73 138.652 1354.73 138.65C1354.73 138.648 1354.73 138.645 1354.73 138.643C1354.73 138.641 1354.73 138.638 1354.73 138.636C1354.73 138.634 1354.73 138.631 1354.73 138.629C1354.73 138.627 1354.73 138.624 1354.73 138.622C1354.73 138.62 1354.73 138.617 1354.73 138.615C1354.73 138.612 1354.73 138.61 1354.73 138.608C1354.73 138.605 1354.73 138.603 1354.73 138.601C1354.73 138.598 1354.73 138.596 1354.73 138.594C1354.73 138.591 1354.73 138.589 1354.73 138.587C1354.73 138.584 1354.73 138.582 1354.73 138.58C1354.73 138.577 1354.73 138.575 1354.73 138.573C1354.73 138.57 1354.73 138.568 1354.73 138.566C1354.73 138.563 1354.73 138.561 1354.73 138.559C1354.73 138.556 1354.73 138.554 1354.73 138.552C1354.73 138.549 1354.73 138.547 1354.73 138.545C1354.73 138.542 1354.73 138.54 1354.73 138.537C1354.73 138.535 1354.73 138.533 1354.73 138.53C1354.73 138.528 1354.73 138.526 1354.73 138.523C1354.73 138.521 1354.73 138.519 1354.73 138.516C1354.73 138.514 1354.73 138.512 1354.73 138.509C1354.73 138.507 1354.73 138.505 1354.73 138.502C1354.73 138.5 1354.73 138.498 1354.73 138.495C1354.73 138.493 1354.73 138.491 1354.73 138.488C1354.73 138.486 1354.73 138.484 1354.73 138.481C1354.73 138.479 1354.73 138.477 1354.73 138.474C1354.73 138.472 1354.73 138.47 1354.73 138.467C1354.73 138.465 1354.73 138.462 1354.73 138.46C1354.73 138.458 1354.73 138.455 1354.73 138.453C1354.73 138.451 1354.73 138.448 1354.73 138.446C1354.73 138.444 1354.73 138.441 1354.73 138.439C1354.73 138.437 1354.73 138.434 1354.73 138.432C1354.73 138.43 1354.73 138.427 1354.73 138.425C1354.73 138.423 1354.73 138.42 1354.73 138.418C1354.73 138.416 1354.73 138.413 1354.73 138.411C1354.73 138.409 1354.73 138.406 1354.73 138.404C1354.73 138.402 1354.73 138.399 1354.73 138.397C1354.73 138.395 1354.73 138.392 1354.73 138.39C1354.73 138.387 1354.73 138.385 1354.73 138.383C1354.73 138.38 1354.73 138.378 1354.73 138.376C1354.73 138.373 1354.73 138.371 1354.73 138.369C1354.73 138.366 1354.73 138.364 1354.73 138.362C1354.73 138.359 1354.73 138.357 1354.73 138.355C1354.73 138.352 1354.73 138.35 1354.73 138.348C1354.73 138.345 1354.73 138.343 1354.73 138.341C1354.73 138.338 1354.73 138.336 1354.73 138.334C1354.73 138.331 1354.73 138.329 1354.73 138.327C1354.73 138.324 1354.73 138.322 1354.73 138.32C1354.73 138.317 1354.73 138.315 1354.73 138.312C1354.73 138.31 1354.73 138.308 1354.73 138.305C1354.73 138.303 1354.73 138.301 1354.73 138.298C1354.73 138.296 1354.73 138.294 1354.73 138.291C1354.73 138.289 1354.73 138.287 1354.73 138.284C1354.73 138.282 1354.73 138.28 1354.73 138.277C1354.73 138.275 1354.73 138.273 1354.73 138.27C1354.73 138.268 1354.73 138.266 1354.73 138.263C1354.73 138.261 1354.73 138.259 1354.73 138.256C1354.73 138.254 1354.73 138.252 1354.73 138.249C1354.73 138.247 1354.73 138.245 1354.73 138.242C1354.73 138.24 1354.73 138.237 1354.73 138.235C1354.73 138.233 1354.73 138.23 1354.73 138.228C1354.73 138.226 1354.73 138.223 1354.73 138.221C1354.73 138.219 1354.73 138.216 1354.73 138.214C1354.73 138.212 1354.73 138.209 1354.73 138.207C1354.73 138.205 1354.73 138.202 1354.73 138.2C1354.73 138.198 1354.73 138.195 1354.73 138.193C1354.73 138.191 1354.73 138.188 1354.73 138.186C1354.73 138.184 1354.73 138.181 1354.73 138.179C1354.73 138.177 1354.73 138.174 1354.73 138.172C1354.73 138.17 1354.73 138.167 1354.73 138.165C1354.73 138.162 1354.73 138.16 1354.73 138.158C1354.73 138.155 1354.73 138.153 1354.73 138.151C1354.73 138.148 1354.73 138.146 1354.73 138.144C1354.73 138.141 1354.73 138.139 1354.73 138.137C1354.73 138.134 1354.73 138.132 1354.73 138.13C1354.73 138.127 1354.73 138.125 1354.73 138.123C1354.73 138.12 1354.73 138.118 1354.73 138.116C1354.73 138.113 1354.73 138.111 1354.73 138.109C1354.73 138.106 1354.73 138.104 1354.73 138.102C1354.73 138.099 1354.73 138.097 1354.73 138.095C1354.73 138.092 1354.73 138.09 1354.73 138.087C1354.73 138.085 1354.73 138.083 1354.73 138.08C1354.73 138.078 1354.73 138.076 1354.73 138.073C1354.73 138.071 1354.73 138.069 1354.73 138.066C1354.73 138.064 1354.73 138.062 1354.73 138.059C1354.73 138.057 1354.73 138.055 1354.73 138.052C1354.73 138.05 1354.73 138.048 1354.73 138.045C1354.73 138.043 1354.73 138.041 1354.73 138.038C1354.73 138.036 1354.73 138.034 1354.73 138.031C1354.73 138.029 1354.73 138.027 1354.73 138.024C1354.73 138.022 1354.73 138.02 1354.73 138.017C1354.73 138.015 1354.73 138.012 1354.73 138.01C1354.73 138.008 1354.73 138.005 1354.73 138.003C1354.73 138.001 1354.73 137.998 1354.73 137.996C1354.73 137.994 1354.73 137.991 1354.73 137.989C1354.73 137.987 1354.73 137.984 1354.73 137.982C1354.73 137.98 1354.73 137.977 1354.73 137.975C1354.73 137.973 1354.73 137.97 1354.73 137.968C1354.73 137.966 1354.73 137.963 1354.73 137.961C1354.73 137.959 1354.73 137.956 1354.73 137.954C1354.73 137.952 1354.73 137.949 1354.73 137.947C1354.73 137.945 1354.73 137.942 1354.73 137.94C1354.73 137.937 1354.73 137.935 1354.73 137.933C1354.73 137.93 1354.73 137.928 1354.73 137.926C1354.73 137.923 1354.73 137.921 1354.73 137.919C1354.73 137.916 1354.73 137.914 1354.73 137.912C1354.73 137.909 1354.73 137.907 1354.73 137.905C1354.73 137.902 1354.73 137.9 1354.73 137.898C1354.73 137.895 1354.73 137.893 1354.73 137.891C1354.73 137.888 1354.73 137.886 1354.73 137.884C1354.73 137.881 1354.73 137.879 1354.73 137.877C1354.73 137.874 1354.73 137.872 1354.73 137.87C1354.73 137.867 1354.73 137.865 1354.73 137.862C1354.73 137.86 1354.73 137.858 1354.73 137.855C1354.73 137.853 1354.73 137.851 1354.73 137.848C1354.73 137.846 1354.73 137.844 1354.73 137.841C1354.73 137.839 1354.73 137.837 1354.73 137.834C1354.73 137.832 1354.73 137.83 1354.73 137.827C1354.73 137.825 1354.73 137.823 1354.73 137.82C1354.73 137.818 1354.73 137.816 1354.73 137.813C1354.73 137.811 1354.73 137.809 1354.73 137.806C1354.73 137.804 1354.73 137.802 1354.73 137.799C1354.73 137.797 1354.73 137.795 1354.73 137.792C1354.73 137.79 1354.73 137.787 1354.73 137.785C1354.73 137.783 1354.73 137.78 1354.73 137.778C1354.73 137.776 1354.73 137.773 1354.73 137.771C1354.73 137.769 1354.73 137.766 1354.73 137.764C1354.73 137.762 1354.73 137.759 1354.73 137.757C1354.73 137.755 1354.73 137.752 1354.73 137.75C1354.73 137.748 1354.73 137.745 1354.73 137.743C1354.73 137.741 1354.73 137.738 1354.73 137.736C1354.73 137.734 1354.73 137.731 1354.73 137.729C1354.73 137.727 1354.73 137.724 1354.73 137.722C1354.73 137.72 1354.73 137.717 1354.73 137.715C1354.73 137.712 1354.73 137.71 1354.73 137.708C1354.73 137.705 1354.73 137.703 1354.73 137.701C1354.73 137.698 1354.73 137.696 1354.73 137.694C1354.73 137.691 1354.73 137.689 1354.73 137.687C1354.73 137.684 1354.73 137.682 1354.73 137.68C1354.73 137.677 1354.73 137.675 1354.73 137.673C1354.73 137.67 1354.73 137.668 1354.73 137.666C1354.73 137.663 1354.73 137.661 1354.73 137.659C1354.73 137.656 1354.73 137.654 1354.73 137.652C1354.73 137.649 1354.73 137.647 1354.73 137.645C1354.73 137.642 1354.73 137.64 1354.73 137.637C1354.73 137.635 1354.73 137.633 1354.73 137.63C1354.73 137.628 1354.73 137.626 1354.73 137.623C1354.73 137.621 1354.73 137.619 1354.73 137.616C1354.73 137.614 1354.73 137.612 1354.73 137.609C1354.73 137.607 1354.73 137.605 1354.73 137.602C1354.73 137.6 1354.73 137.598 1354.73 137.595C1354.73 137.593 1354.73 137.591 1354.73 137.588C1354.73 137.586 1354.73 137.584 1354.73 137.581C1354.73 137.579 1354.73 137.577 1354.73 137.574C1354.73 137.572 1354.73 137.57 1354.73 137.567C1354.73 137.565 1354.73 137.562 1354.73 137.56C1354.73 137.558 1354.73 137.555 1354.73 137.553C1354.73 137.551 1354.73 137.548 1354.73 137.546C1354.73 137.544 1354.73 137.541 1354.73 137.539C1354.73 137.537 1354.73 137.534 1354.73 137.532C1354.73 137.53 1354.73 137.527 1354.73 137.525C1354.73 137.523 1354.73 137.52 1354.73 137.518C1354.73 137.516 1354.73 137.513 1354.73 137.511C1354.73 137.509 1354.73 137.506 1354.73 137.504C1354.73 137.502 1354.73 137.499 1354.73 137.497C1354.73 137.495 1354.73 137.492 1354.73 137.49C1354.73 137.487 1354.73 137.485 1354.73 137.483C1354.73 137.48 1354.73 137.478 1354.73 137.476C1354.73 137.473 1354.73 137.471 1354.73 137.469C1354.73 137.466 1354.73 137.464 1354.73 137.462C1354.73 137.459 1354.73 137.457 1354.73 137.455C1354.73 137.452 1354.73 137.45 1354.73 137.448C1354.73 137.445 1354.73 137.443 1354.73 137.441C1354.73 137.438 1354.73 137.436 1354.73 137.434C1354.73 137.431 1354.73 137.429 1354.73 137.427C1354.73 137.424 1354.73 137.422 1354.73 137.42C1354.73 137.417 1354.73 137.415 1354.73 137.412C1354.73 137.41 1354.73 137.408 1354.73 137.405C1354.73 137.403 1354.73 137.401 1354.73 137.398C1354.73 137.396 1354.73 137.394 1354.73 137.391C1354.73 137.389 1354.73 137.387 1354.73 137.384C1354.73 137.382 1354.73 137.38 1354.73 137.377C1354.73 137.375 1354.73 137.373 1354.73 137.37C1354.73 137.368 1354.73 137.366 1354.73 137.363C1354.73 137.361 1354.73 137.359 1354.73 137.356C1354.73 137.354 1354.73 137.352 1354.73 137.349C1354.73 137.347 1354.73 137.345 1354.73 137.342C1354.73 137.34 1354.73 137.337 1354.73 137.335C1354.73 137.333 1354.73 137.33 1354.73 137.328C1354.73 137.326 1354.73 137.323 1354.73 137.321C1354.73 137.319 1354.73 137.316 1354.73 137.314C1354.73 137.312 1354.73 137.309 1354.73 137.307C1354.73 137.305 1354.73 137.302 1354.73 137.3H1334.73C1334.73 137.302 1334.73 137.305 1334.73 137.307C1334.73 137.309 1334.73 137.312 1334.73 137.314C1334.73 137.316 1334.73 137.319 1334.73 137.321C1334.73 137.323 1334.73 137.326 1334.73 137.328C1334.73 137.33 1334.73 137.333 1334.73 137.335C1334.73 137.337 1334.73 137.34 1334.73 137.342C1334.73 137.345 1334.73 137.347 1334.73 137.349C1334.73 137.352 1334.73 137.354 1334.73 137.356C1334.73 137.359 1334.73 137.361 1334.73 137.363C1334.73 137.366 1334.73 137.368 1334.73 137.37C1334.73 137.373 1334.73 137.375 1334.73 137.377C1334.73 137.38 1334.73 137.382 1334.73 137.384C1334.73 137.387 1334.73 137.389 1334.73 137.391C1334.73 137.394 1334.73 137.396 1334.73 137.398C1334.73 137.401 1334.73 137.403 1334.73 137.405C1334.73 137.408 1334.73 137.41 1334.73 137.412C1334.73 137.415 1334.73 137.417 1334.73 137.42C1334.73 137.422 1334.73 137.424 1334.73 137.427C1334.73 137.429 1334.73 137.431 1334.73 137.434C1334.73 137.436 1334.73 137.438 1334.73 137.441C1334.73 137.443 1334.73 137.445 1334.73 137.448C1334.73 137.45 1334.73 137.452 1334.73 137.455C1334.73 137.457 1334.73 137.459 1334.73 137.462C1334.73 137.464 1334.73 137.466 1334.73 137.469C1334.73 137.471 1334.73 137.473 1334.73 137.476C1334.73 137.478 1334.73 137.48 1334.73 137.483C1334.73 137.485 1334.73 137.487 1334.73 137.49C1334.73 137.492 1334.73 137.495 1334.73 137.497C1334.73 137.499 1334.73 137.502 1334.73 137.504C1334.73 137.506 1334.73 137.509 1334.73 137.511C1334.73 137.513 1334.73 137.516 1334.73 137.518C1334.73 137.52 1334.73 137.523 1334.73 137.525C1334.73 137.527 1334.73 137.53 1334.73 137.532C1334.73 137.534 1334.73 137.537 1334.73 137.539C1334.73 137.541 1334.73 137.544 1334.73 137.546C1334.73 137.548 1334.73 137.551 1334.73 137.553C1334.73 137.555 1334.73 137.558 1334.73 137.56C1334.73 137.562 1334.73 137.565 1334.73 137.567C1334.73 137.57 1334.73 137.572 1334.73 137.574C1334.73 137.577 1334.73 137.579 1334.73 137.581C1334.73 137.584 1334.73 137.586 1334.73 137.588C1334.73 137.591 1334.73 137.593 1334.73 137.595C1334.73 137.598 1334.73 137.6 1334.73 137.602C1334.73 137.605 1334.73 137.607 1334.73 137.609C1334.73 137.612 1334.73 137.614 1334.73 137.616C1334.73 137.619 1334.73 137.621 1334.73 137.623C1334.73 137.626 1334.73 137.628 1334.73 137.63C1334.73 137.633 1334.73 137.635 1334.73 137.637C1334.73 137.64 1334.73 137.642 1334.73 137.645C1334.73 137.647 1334.73 137.649 1334.73 137.652C1334.73 137.654 1334.73 137.656 1334.73 137.659C1334.73 137.661 1334.73 137.663 1334.73 137.666C1334.73 137.668 1334.73 137.67 1334.73 137.673C1334.73 137.675 1334.73 137.677 1334.73 137.68C1334.73 137.682 1334.73 137.684 1334.73 137.687C1334.73 137.689 1334.73 137.691 1334.73 137.694C1334.73 137.696 1334.73 137.698 1334.73 137.701C1334.73 137.703 1334.73 137.705 1334.73 137.708C1334.73 137.71 1334.73 137.712 1334.73 137.715C1334.73 137.717 1334.73 137.72 1334.73 137.722C1334.73 137.724 1334.73 137.727 1334.73 137.729C1334.73 137.731 1334.73 137.734 1334.73 137.736C1334.73 137.738 1334.73 137.741 1334.73 137.743C1334.73 137.745 1334.73 137.748 1334.73 137.75C1334.73 137.752 1334.73 137.755 1334.73 137.757C1334.73 137.759 1334.73 137.762 1334.73 137.764C1334.73 137.766 1334.73 137.769 1334.73 137.771C1334.73 137.773 1334.73 137.776 1334.73 137.778C1334.73 137.78 1334.73 137.783 1334.73 137.785C1334.73 137.787 1334.73 137.79 1334.73 137.792C1334.73 137.795 1334.73 137.797 1334.73 137.799C1334.73 137.802 1334.73 137.804 1334.73 137.806C1334.73 137.809 1334.73 137.811 1334.73 137.813C1334.73 137.816 1334.73 137.818 1334.73 137.82C1334.73 137.823 1334.73 137.825 1334.73 137.827C1334.73 137.83 1334.73 137.832 1334.73 137.834C1334.73 137.837 1334.73 137.839 1334.73 137.841C1334.73 137.844 1334.73 137.846 1334.73 137.848C1334.73 137.851 1334.73 137.853 1334.73 137.855C1334.73 137.858 1334.73 137.86 1334.73 137.862C1334.73 137.865 1334.73 137.867 1334.73 137.87C1334.73 137.872 1334.73 137.874 1334.73 137.877C1334.73 137.879 1334.73 137.881 1334.73 137.884C1334.73 137.886 1334.73 137.888 1334.73 137.891C1334.73 137.893 1334.73 137.895 1334.73 137.898C1334.73 137.9 1334.73 137.902 1334.73 137.905C1334.73 137.907 1334.73 137.909 1334.73 137.912C1334.73 137.914 1334.73 137.916 1334.73 137.919C1334.73 137.921 1334.73 137.923 1334.73 137.926C1334.73 137.928 1334.73 137.93 1334.73 137.933C1334.73 137.935 1334.73 137.937 1334.73 137.94C1334.73 137.942 1334.73 137.945 1334.73 137.947C1334.73 137.949 1334.73 137.952 1334.73 137.954C1334.73 137.956 1334.73 137.959 1334.73 137.961C1334.73 137.963 1334.73 137.966 1334.73 137.968C1334.73 137.97 1334.73 137.973 1334.73 137.975C1334.73 137.977 1334.73 137.98 1334.73 137.982C1334.73 137.984 1334.73 137.987 1334.73 137.989C1334.73 137.991 1334.73 137.994 1334.73 137.996C1334.73 137.998 1334.73 138.001 1334.73 138.003C1334.73 138.005 1334.73 138.008 1334.73 138.01C1334.73 138.012 1334.73 138.015 1334.73 138.017C1334.73 138.02 1334.73 138.022 1334.73 138.024C1334.73 138.027 1334.73 138.029 1334.73 138.031C1334.73 138.034 1334.73 138.036 1334.73 138.038C1334.73 138.041 1334.73 138.043 1334.73 138.045C1334.73 138.048 1334.73 138.05 1334.73 138.052C1334.73 138.055 1334.73 138.057 1334.73 138.059C1334.73 138.062 1334.73 138.064 1334.73 138.066C1334.73 138.069 1334.73 138.071 1334.73 138.073C1334.73 138.076 1334.73 138.078 1334.73 138.08C1334.73 138.083 1334.73 138.085 1334.73 138.087C1334.73 138.09 1334.73 138.092 1334.73 138.095C1334.73 138.097 1334.73 138.099 1334.73 138.102C1334.73 138.104 1334.73 138.106 1334.73 138.109C1334.73 138.111 1334.73 138.113 1334.73 138.116C1334.73 138.118 1334.73 138.12 1334.73 138.123C1334.73 138.125 1334.73 138.127 1334.73 138.13C1334.73 138.132 1334.73 138.134 1334.73 138.137C1334.73 138.139 1334.73 138.141 1334.73 138.144C1334.73 138.146 1334.73 138.148 1334.73 138.151C1334.73 138.153 1334.73 138.155 1334.73 138.158C1334.73 138.16 1334.73 138.162 1334.73 138.165C1334.73 138.167 1334.73 138.17 1334.73 138.172C1334.73 138.174 1334.73 138.177 1334.73 138.179C1334.73 138.181 1334.73 138.184 1334.73 138.186C1334.73 138.188 1334.73 138.191 1334.73 138.193C1334.73 138.195 1334.73 138.198 1334.73 138.2C1334.73 138.202 1334.73 138.205 1334.73 138.207C1334.73 138.209 1334.73 138.212 1334.73 138.214C1334.73 138.216 1334.73 138.219 1334.73 138.221C1334.73 138.223 1334.73 138.226 1334.73 138.228C1334.73 138.23 1334.73 138.233 1334.73 138.235C1334.73 138.237 1334.73 138.24 1334.73 138.242C1334.73 138.245 1334.73 138.247 1334.73 138.249C1334.73 138.252 1334.73 138.254 1334.73 138.256C1334.73 138.259 1334.73 138.261 1334.73 138.263C1334.73 138.266 1334.73 138.268 1334.73 138.27C1334.73 138.273 1334.73 138.275 1334.73 138.277C1334.73 138.28 1334.73 138.282 1334.73 138.284C1334.73 138.287 1334.73 138.289 1334.73 138.291C1334.73 138.294 1334.73 138.296 1334.73 138.298C1334.73 138.301 1334.73 138.303 1334.73 138.305C1334.73 138.308 1334.73 138.31 1334.73 138.312C1334.73 138.315 1334.73 138.317 1334.73 138.32C1334.73 138.322 1334.73 138.324 1334.73 138.327C1334.73 138.329 1334.73 138.331 1334.73 138.334C1334.73 138.336 1334.73 138.338 1334.73 138.341C1334.73 138.343 1334.73 138.345 1334.73 138.348C1334.73 138.35 1334.73 138.352 1334.73 138.355C1334.73 138.357 1334.73 138.359 1334.73 138.362C1334.73 138.364 1334.73 138.366 1334.73 138.369C1334.73 138.371 1334.73 138.373 1334.73 138.376C1334.73 138.378 1334.73 138.38 1334.73 138.383C1334.73 138.385 1334.73 138.387 1334.73 138.39C1334.73 138.392 1334.73 138.395 1334.73 138.397C1334.73 138.399 1334.73 138.402 1334.73 138.404C1334.73 138.406 1334.73 138.409 1334.73 138.411C1334.73 138.413 1334.73 138.416 1334.73 138.418C1334.73 138.42 1334.73 138.423 1334.73 138.425C1334.73 138.427 1334.73 138.43 1334.73 138.432C1334.73 138.434 1334.73 138.437 1334.73 138.439C1334.73 138.441 1334.73 138.444 1334.73 138.446C1334.73 138.448 1334.73 138.451 1334.73 138.453C1334.73 138.455 1334.73 138.458 1334.73 138.46C1334.73 138.462 1334.73 138.465 1334.73 138.467C1334.73 138.47 1334.73 138.472 1334.73 138.474C1334.73 138.477 1334.73 138.479 1334.73 138.481C1334.73 138.484 1334.73 138.486 1334.73 138.488C1334.73 138.491 1334.73 138.493 1334.73 138.495C1334.73 138.498 1334.73 138.5 1334.73 138.502C1334.73 138.505 1334.73 138.507 1334.73 138.509C1334.73 138.512 1334.73 138.514 1334.73 138.516C1334.73 138.519 1334.73 138.521 1334.73 138.523C1334.73 138.526 1334.73 138.528 1334.73 138.53C1334.73 138.533 1334.73 138.535 1334.73 138.537C1334.73 138.54 1334.73 138.542 1334.73 138.545C1334.73 138.547 1334.73 138.549 1334.73 138.552C1334.73 138.554 1334.73 138.556 1334.73 138.559C1334.73 138.561 1334.73 138.563 1334.73 138.566C1334.73 138.568 1334.73 138.57 1334.73 138.573C1334.73 138.575 1334.73 138.577 1334.73 138.58C1334.73 138.582 1334.73 138.584 1334.73 138.587C1334.73 138.589 1334.73 138.591 1334.73 138.594C1334.73 138.596 1334.73 138.598 1334.73 138.601C1334.73 138.603 1334.73 138.605 1334.73 138.608C1334.73 138.61 1334.73 138.612 1334.73 138.615C1334.73 138.617 1334.73 138.62 1334.73 138.622C1334.73 138.624 1334.73 138.627 1334.73 138.629C1334.73 138.631 1334.73 138.634 1334.73 138.636C1334.73 138.638 1334.73 138.641 1334.73 138.643C1334.73 138.645 1334.73 138.648 1334.73 138.65C1334.73 138.652 1334.73 138.655 1334.73 138.657C1334.73 138.659 1334.73 138.662 1334.73 138.664C1334.73 138.666 1334.73 138.669 1334.73 138.671C1334.73 138.673 1334.73 138.676 1334.73 138.678C1334.73 138.68 1334.73 138.683 1334.73 138.685C1334.73 138.687 1334.73 138.69 1334.73 138.692C1334.73 138.695 1334.73 138.697 1334.73 138.699C1334.73 138.702 1334.73 138.704 1334.73 138.706C1334.73 138.709 1334.73 138.711 1334.73 138.713C1334.73 138.716 1334.73 138.718 1334.73 138.72C1334.73 138.723 1334.73 138.725 1334.73 138.727C1334.73 138.73 1334.73 138.732 1334.73 138.734C1334.73 138.737 1334.73 138.739 1334.73 138.741C1334.73 138.744 1334.73 138.746 1334.73 138.748C1334.73 138.751 1334.73 138.753 1334.73 138.755C1334.73 138.758 1334.73 138.76 1334.73 138.762C1334.73 138.765 1334.73 138.767 1334.73 138.77C1334.73 138.772 1334.73 138.774 1334.73 138.777C1334.73 138.779 1334.73 138.781 1334.73 138.784C1334.73 138.786 1334.73 138.788 1334.73 138.791C1334.73 138.793 1334.73 138.795 1334.73 138.798C1334.73 138.8 1334.73 138.802 1334.73 138.805C1334.73 138.807 1334.73 138.809 1334.73 138.812C1334.73 138.814 1334.73 138.816 1334.73 138.819C1334.73 138.821 1334.73 138.823 1334.73 138.826C1334.73 138.828 1334.73 138.83 1334.73 138.833C1334.73 138.835 1334.73 138.837 1334.73 138.84C1334.73 138.842 1334.73 138.845 1334.73 138.847C1334.73 138.849 1334.73 138.852 1334.73 138.854C1334.73 138.856 1334.73 138.859 1334.73 138.861C1334.73 138.863 1334.73 138.866 1334.73 138.868C1334.73 138.87 1334.73 138.873 1334.73 138.875C1334.73 138.877 1334.73 138.88 1334.73 138.882C1334.73 138.884 1334.73 138.887 1334.73 138.889C1334.73 138.891 1334.73 138.894 1334.73 138.896C1334.73 138.898 1334.73 138.901 1334.73 138.903C1334.73 138.905 1334.73 138.908 1334.73 138.91C1334.73 138.912 1334.73 138.915 1334.73 138.917C1334.73 138.92 1334.73 138.922 1334.73 138.924C1334.73 138.927 1334.73 138.929 1334.73 138.931C1334.73 138.934 1334.73 138.936 1334.73 138.938C1334.73 138.941 1334.73 138.943 1334.73 138.945C1334.73 138.948 1334.73 138.95 1334.73 138.952C1334.73 138.955 1334.73 138.957 1334.73 138.959C1334.73 138.962 1334.73 138.964 1334.73 138.966C1334.73 138.969 1334.73 138.971 1334.73 138.973C1334.73 138.976 1334.73 138.978 1334.73 138.98C1334.73 138.983 1334.73 138.985 1334.73 138.987C1334.73 138.99 1334.73 138.992 1334.73 138.995C1334.73 138.997 1334.73 138.999 1334.73 139.002C1334.73 139.004 1334.73 139.006 1334.73 139.009C1334.73 139.011 1334.73 139.013 1334.73 139.016C1334.73 139.018 1334.73 139.02 1334.73 139.023C1334.73 139.025 1334.73 139.027 1334.73 139.03C1334.73 139.032 1334.73 139.034 1334.73 139.037C1334.73 139.039 1334.73 139.041 1334.73 139.044C1334.73 139.046 1334.73 139.048 1334.73 139.051C1334.73 139.053 1334.73 139.055 1334.73 139.058C1334.73 139.06 1334.73 139.062 1334.73 139.065C1334.73 139.067 1334.73 139.07 1334.73 139.072C1334.73 139.074 1334.73 139.077 1334.73 139.079C1334.73 139.081 1334.73 139.084 1334.73 139.086C1334.73 139.088 1334.73 139.091 1334.73 139.093C1334.73 139.095 1334.73 139.098 1334.73 139.1C1334.73 139.102 1334.73 139.105 1334.73 139.107C1334.73 139.109 1334.73 139.112 1334.73 139.114C1334.73 139.116 1334.73 139.119 1334.73 139.121C1334.73 139.123 1334.73 139.126 1334.73 139.128C1334.73 139.13 1334.73 139.133 1334.73 139.135C1334.73 139.137 1334.73 139.14 1334.73 139.142C1334.73 139.145 1334.73 139.147 1334.73 139.149C1334.73 139.152 1334.73 139.154 1334.73 139.156C1334.73 139.159 1334.73 139.161 1334.73 139.163C1334.73 139.166 1334.73 139.168 1334.73 139.17C1334.73 139.173 1334.73 139.175 1334.73 139.177C1334.73 139.18 1334.73 139.182 1334.73 139.184C1334.73 139.187 1334.73 139.189 1334.73 139.191C1334.73 139.194 1334.73 139.196 1334.73 139.198C1334.73 139.201 1334.73 139.203 1334.73 139.205C1334.73 139.208 1334.73 139.21 1334.73 139.212C1334.73 139.215 1334.73 139.217 1334.73 139.22C1334.73 139.222 1334.73 139.224 1334.73 139.227C1334.73 139.229 1334.73 139.231 1334.73 139.234C1334.73 139.236 1334.73 139.238 1334.73 139.241C1334.73 139.243 1334.73 139.245 1334.73 139.248C1334.73 139.25 1334.73 139.252 1334.73 139.255C1334.73 139.257 1334.73 139.259 1334.73 139.262C1334.73 139.264 1334.73 139.266 1334.73 139.269C1334.73 139.271 1334.73 139.273 1334.73 139.276C1334.73 139.278 1334.73 139.28 1334.73 139.283C1334.73 139.285 1334.73 139.287 1334.73 139.29C1334.73 139.292 1334.73 139.295 1334.73 139.297C1334.73 139.299 1334.73 139.302 1334.73 139.304C1334.73 139.306 1334.73 139.309 1334.73 139.311C1334.73 139.313 1334.73 139.316 1334.73 139.318C1334.73 139.32 1334.73 139.323 1334.73 139.325C1334.73 139.327 1334.73 139.33 1334.73 139.332C1334.73 139.334 1334.73 139.337 1334.73 139.339C1334.73 139.341 1334.73 139.344 1334.73 139.346C1334.73 139.348 1334.73 139.351 1334.73 139.353C1334.73 139.355 1334.73 139.358 1334.73 139.36C1334.73 139.362 1334.73 139.365 1334.73 139.367C1334.73 139.37 1334.73 139.372 1334.73 139.374C1334.73 139.377 1334.73 139.379 1334.73 139.381C1334.73 139.384 1334.73 139.386 1334.73 139.388C1334.73 139.391 1334.73 139.393 1334.73 139.395C1334.73 139.398 1334.73 139.4 1334.73 139.402C1334.73 139.405 1334.73 139.407 1334.73 139.409C1334.73 139.412 1334.73 139.414 1334.73 139.416C1334.73 139.419 1334.73 139.421 1334.73 139.423C1334.73 139.426 1334.73 139.428 1334.73 139.43C1334.73 139.433 1334.73 139.435 1334.73 139.437C1334.73 139.44 1334.73 139.442 1334.73 139.445C1334.73 139.447 1334.73 139.449 1334.73 139.452C1334.73 139.454 1334.73 139.456 1334.73 139.459C1334.73 139.461 1334.73 139.463 1334.73 139.466C1334.73 139.468 1334.73 139.47 1334.73 139.473C1334.73 139.475 1334.73 139.477 1334.73 139.48C1334.73 139.482 1334.73 139.484 1334.73 139.487C1334.73 139.489 1334.73 139.491 1334.73 139.494C1334.73 139.496 1334.73 139.498 1334.73 139.501C1334.73 139.503 1334.73 139.505 1334.73 139.508C1334.73 139.51 1334.73 139.512 1334.73 139.515C1334.73 139.517 1334.73 139.52 1334.73 139.522C1334.73 139.524 1334.73 139.527 1334.73 139.529C1334.73 139.531 1334.73 139.534 1334.73 139.536C1334.73 139.538 1334.73 139.541 1334.73 139.543C1334.73 139.545 1334.73 139.548 1334.73 139.55C1334.73 139.552 1334.73 139.555 1334.73 139.557C1334.73 139.559 1334.73 139.562 1334.73 139.564C1334.73 139.566 1334.73 139.569 1334.73 139.571C1334.73 139.573 1334.73 139.576 1334.73 139.578C1334.73 139.58 1334.73 139.583 1334.73 139.585C1334.73 139.587 1334.73 139.59 1334.73 139.592C1334.73 139.595 1334.73 139.597 1334.73 139.599C1334.73 139.602 1334.73 139.604 1334.73 139.606C1334.73 139.609 1334.73 139.611 1334.73 139.613C1334.73 139.616 1334.73 139.618 1334.73 139.62C1334.73 139.623 1334.73 139.625 1334.73 139.627C1334.73 139.63 1334.73 139.632 1334.73 139.634C1334.73 139.637 1334.73 139.639 1334.73 139.641C1334.73 139.644 1334.73 139.646 1334.73 139.648C1334.73 139.651 1334.73 139.653 1334.73 139.655C1334.73 139.658 1334.73 139.66 1334.73 139.662C1334.73 139.665 1334.73 139.667 1334.73 139.67C1334.73 139.672 1334.73 139.674 1334.73 139.677C1334.73 139.679 1334.73 139.681 1334.73 139.684C1334.73 139.686 1334.73 139.688 1334.73 139.691C1334.73 139.693 1334.73 139.695 1334.73 139.698C1334.73 139.7 1334.73 139.702 1334.73 139.705C1334.73 139.707 1334.73 139.709 1334.73 139.712C1334.73 139.714 1334.73 139.716 1334.73 139.719C1334.73 139.721 1334.73 139.723 1334.73 139.726C1334.73 139.728 1334.73 139.73 1334.73 139.733C1334.73 139.735 1334.73 139.737 1334.73 139.74C1334.73 139.742 1334.73 139.745 1334.73 139.747C1334.73 139.749 1334.73 139.752 1334.73 139.754C1334.73 139.756 1334.73 139.759 1334.73 139.761C1334.73 139.763 1334.73 139.766 1334.73 139.768C1334.73 139.77 1334.73 139.773 1334.73 139.775C1334.73 139.777 1334.73 139.78 1334.73 139.782C1334.73 139.784 1334.73 139.787 1334.73 139.789C1334.73 139.791 1334.73 139.794 1334.73 139.796C1334.73 139.798 1334.73 139.801 1334.73 139.803C1334.73 139.805 1334.73 139.808 1334.73 139.81C1334.73 139.812 1334.73 139.815 1334.73 139.817C1334.73 139.82 1334.73 139.822 1334.73 139.824C1334.73 139.827 1334.73 139.829 1334.73 139.831C1334.73 139.834 1334.73 139.836 1334.73 139.838C1334.73 139.841 1334.73 139.843 1334.73 139.845C1334.73 139.848 1334.73 139.85 1334.73 139.852C1334.73 139.855 1334.73 139.857 1334.73 139.859C1334.73 139.862 1334.73 139.864 1334.73 139.866C1334.73 139.869 1334.73 139.871 1334.73 139.873C1334.73 139.876 1334.73 139.878 1334.73 139.88C1334.73 139.883 1334.73 139.885 1334.73 139.887C1334.73 139.89 1334.73 139.892 1334.73 139.895C1334.73 139.897 1334.73 139.899 1334.73 139.902C1334.73 139.904 1334.73 139.906 1334.73 139.909C1334.73 139.911 1334.73 139.913 1334.73 139.916C1334.73 139.918 1334.73 139.92 1334.73 139.923C1334.73 139.925 1334.73 139.927 1334.73 139.93C1334.73 139.932 1334.73 139.934 1334.73 139.937C1334.73 139.939 1334.73 139.941 1334.73 139.944C1334.73 139.946 1334.73 139.948 1334.73 139.951C1334.73 139.953 1334.73 139.955 1334.73 139.958C1334.73 139.96 1334.73 139.962 1334.73 139.965C1334.73 139.967 1334.73 139.97 1334.73 139.972C1334.73 139.974 1334.73 139.977 1334.73 139.979C1334.73 139.981 1334.73 139.984 1334.73 139.986C1334.73 139.988 1334.73 139.991 1334.73 139.993C1334.73 139.995 1334.73 139.998 1334.73 140C1334.73 140.002 1334.73 140.005 1334.73 140.007C1334.73 140.009 1334.73 140.012 1334.73 140.014C1334.73 140.016 1334.73 140.019 1334.73 140.021C1334.73 140.023 1334.73 140.026 1334.73 140.028C1334.73 140.03 1334.73 140.033 1334.73 140.035C1334.73 140.037 1334.73 140.04 1334.73 140.042C1334.73 140.045 1334.73 140.047 1334.73 140.049C1334.73 140.052 1334.73 140.054 1334.73 140.056C1334.73 140.059 1334.73 140.061 1334.73 140.063C1334.73 140.066 1334.73 140.068 1334.73 140.07C1334.73 140.073 1334.73 140.075 1334.73 140.077C1334.73 140.08 1334.73 140.082 1334.73 140.084C1334.73 140.087 1334.73 140.089 1334.73 140.091C1334.73 140.094 1334.73 140.096 1334.73 140.098C1334.73 140.101 1334.73 140.103 1334.73 140.105C1334.73 140.108 1334.73 140.11 1334.73 140.112C1334.73 140.115 1334.73 140.117 1334.73 140.12C1334.73 140.122 1334.73 140.124 1334.73 140.127C1334.73 140.129 1334.73 140.131 1334.73 140.134C1334.73 140.136 1334.73 140.138 1334.73 140.141C1334.73 140.143 1334.73 140.145 1334.73 140.148C1334.73 140.15 1334.73 140.152 1334.73 140.155C1334.73 140.157 1334.73 140.159 1334.73 140.162C1334.73 140.164 1334.73 140.166 1334.73 140.169C1334.73 140.171 1334.73 140.173 1334.73 140.176C1334.73 140.178 1334.73 140.18 1334.73 140.183C1334.73 140.185 1334.73 140.187 1334.73 140.19C1334.73 140.192 1334.73 140.195 1334.73 140.197C1334.73 140.199 1334.73 140.202 1334.73 140.204C1334.73 140.206 1334.73 140.209 1334.73 140.211C1334.73 140.213 1334.73 140.216 1334.73 140.218C1334.73 140.22 1334.73 140.223 1334.73 140.225C1334.73 140.227 1334.73 140.23 1334.73 140.232C1334.73 140.234 1334.73 140.237 1334.73 140.239C1334.73 140.241 1334.73 140.244 1334.73 140.246C1334.73 140.248 1334.73 140.251 1334.73 140.253C1334.73 140.255 1334.73 140.258 1334.73 140.26C1334.73 140.262 1334.73 140.265 1334.73 140.267C1334.73 140.27 1334.73 140.272 1334.73 140.274C1334.73 140.277 1334.73 140.279 1334.73 140.281C1334.73 140.284 1334.73 140.286 1334.73 140.288C1334.73 140.291 1334.73 140.293 1334.73 140.295C1334.73 140.298 1334.73 140.3 1334.73 140.302C1334.73 140.305 1334.73 140.307 1334.73 140.309C1334.73 140.312 1334.73 140.314 1334.73 140.316C1334.73 140.319 1334.73 140.321 1334.73 140.323C1334.73 140.326 1334.73 140.328 1334.73 140.33C1334.73 140.333 1334.73 140.335 1334.73 140.337C1334.73 140.34 1334.73 140.342 1334.73 140.345C1334.73 140.347 1334.73 140.349 1334.73 140.352C1334.73 140.354 1334.73 140.356 1334.73 140.359C1334.73 140.361 1334.73 140.363 1334.73 140.366C1334.73 140.368 1334.73 140.37 1334.73 140.373C1334.73 140.375 1334.73 140.377 1334.73 140.38C1334.73 140.382 1334.73 140.384 1334.73 140.387C1334.73 140.389 1334.73 140.391 1334.73 140.394C1334.73 140.396 1334.73 140.398 1334.73 140.401C1334.73 140.403 1334.73 140.405 1334.73 140.408C1334.73 140.41 1334.73 140.412 1334.73 140.415C1334.73 140.417 1334.73 140.42 1334.73 140.422C1334.73 140.424 1334.73 140.427 1334.73 140.429C1334.73 140.431 1334.73 140.434 1334.73 140.436C1334.73 140.438 1334.73 140.441 1334.73 140.443C1334.73 140.445 1334.73 140.448 1334.73 140.45C1334.73 140.452 1334.73 140.455 1334.73 140.457C1334.73 140.459 1334.73 140.462 1334.73 140.464C1334.73 140.466 1334.73 140.469 1334.73 140.471C1334.73 140.473 1334.73 140.476 1334.73 140.478C1334.73 140.48 1334.73 140.483 1334.73 140.485C1334.73 140.487 1334.73 140.49 1334.73 140.492C1334.73 140.495 1334.73 140.497 1334.73 140.499C1334.73 140.502 1334.73 140.504 1334.73 140.506C1334.73 140.509 1334.73 140.511 1334.73 140.513C1334.73 140.516 1334.73 140.518 1334.73 140.52C1334.73 140.523 1334.73 140.525 1334.73 140.527C1334.73 140.53 1334.73 140.532 1334.73 140.534C1334.73 140.537 1334.73 140.539 1334.73 140.541C1334.73 140.544 1334.73 140.546 1334.73 140.548C1334.73 140.551 1334.73 140.553 1334.73 140.555C1334.73 140.558 1334.73 140.56 1334.73 140.562C1334.73 140.565 1334.73 140.567 1334.73 140.57C1334.73 140.572 1334.73 140.574 1334.73 140.577C1334.73 140.579 1334.73 140.581 1334.73 140.584C1334.73 140.586 1334.73 140.588 1334.73 140.591C1334.73 140.593 1334.73 140.595 1334.73 140.598C1334.73 140.6 1334.73 140.602 1334.73 140.605C1334.73 140.607 1334.73 140.609 1334.73 140.612C1334.73 140.614 1334.73 140.616 1334.73 140.619C1334.73 140.621 1334.73 140.623 1334.73 140.626C1334.73 140.628 1334.73 140.63 1334.73 140.633C1334.73 140.635 1334.73 140.637 1334.73 140.64C1334.73 140.642 1334.73 140.645 1334.73 140.647C1334.73 140.649 1334.73 140.652 1334.73 140.654C1334.73 140.656 1334.73 140.659 1334.73 140.661C1334.73 140.663 1334.73 140.666 1334.73 140.668C1334.73 140.67 1334.73 140.673 1334.73 140.675C1334.73 140.677 1334.73 140.68 1334.73 140.682C1334.73 140.684 1334.73 140.687 1334.73 140.689C1334.73 140.691 1334.73 140.694 1334.73 140.696C1334.73 140.698 1334.73 140.701 1334.73 140.703C1334.73 140.705 1334.73 140.708 1334.73 140.71C1334.73 140.712 1334.73 140.715 1334.73 140.717C1334.73 140.72 1334.73 140.722 1334.73 140.724C1334.73 140.727 1334.73 140.729 1334.73 140.731C1334.73 140.734 1334.73 140.736 1334.73 140.738C1334.73 140.741 1334.73 140.743 1334.73 140.745C1334.73 140.748 1334.73 140.75 1334.73 140.752C1334.73 140.755 1334.73 140.757 1334.73 140.759C1334.73 140.762 1334.73 140.764 1334.73 140.766C1334.73 140.769 1334.73 140.771 1334.73 140.773C1334.73 140.776 1334.73 140.778 1334.73 140.78C1334.73 140.783 1334.73 140.785 1334.73 140.787C1334.73 140.79 1334.73 140.792 1334.73 140.795C1334.73 140.797 1334.73 140.799 1334.73 140.802C1334.73 140.804 1334.73 140.806 1334.73 140.809C1334.73 140.811 1334.73 140.813 1334.73 140.816C1334.73 140.818 1334.73 140.82 1334.73 140.823C1334.73 140.825 1334.73 140.827 1334.73 140.83C1334.73 140.832 1334.73 140.834 1334.73 140.837C1334.73 140.839 1334.73 140.841 1334.73 140.844C1334.73 140.846 1334.73 140.848 1334.73 140.851C1334.73 140.853 1334.73 140.855 1334.73 140.858C1334.73 140.86 1334.73 140.862 1334.73 140.865C1334.73 140.867 1334.73 140.87 1334.73 140.872C1334.73 140.874 1334.73 140.877 1334.73 140.879C1334.73 140.881 1334.73 140.884 1334.73 140.886C1334.73 140.888 1334.73 140.891 1334.73 140.893C1334.73 140.895 1334.73 140.898 1334.73 140.9H1354.73ZM1354.43 139.725C1354.86 138.005 1355.18 136.108 1355.18 134.15H1335.18C1335.18 134.052 1335.19 134.061 1335.17 134.198C1335.15 134.333 1335.11 134.555 1335.03 134.875L1354.43 139.725ZM1355.17 133.872C1354.86 122.694 1353.93 112.2 1352.35 102.408L1332.61 105.592C1334.03 114.4 1334.89 124.006 1335.18 134.428L1355.17 133.872ZM1352.36 102.456C1350.73 92.0365 1347.91 82.6952 1343.69 74.6243L1325.96 83.8756C1328.95 89.6048 1331.23 96.7635 1332.6 105.544L1352.36 102.456ZM1343.77 74.7778C1339.42 66.0677 1333.25 59.0575 1325.24 54.0973L1314.72 71.1026C1319.3 73.9425 1323.04 78.0323 1325.88 83.7221L1343.77 74.7778ZM1325.71 54.4077C1317.68 48.7851 1308.05 46.3 1297.48 46.3V66.3C1304.9 66.3 1310.28 68.0149 1314.24 70.7923L1325.71 54.4077ZM1297.48 46.3C1288.86 46.3 1280.84 48.1057 1273.72 52.0584L1283.44 69.5416C1287.12 67.4943 1291.69 66.3 1297.48 66.3V46.3ZM1273.72 52.0584C1267.06 55.7621 1261.52 60.6849 1257.29 66.8347L1273.77 78.1653C1276.14 74.715 1279.3 71.8378 1283.44 69.5416L1273.72 52.0584ZM1257.29 66.8347C1253.41 72.4717 1250.43 78.6197 1248.34 85.2387L1267.41 91.2613C1268.92 86.4802 1271.04 82.1283 1273.77 78.1653L1257.29 66.8347ZM1248.21 85.7051C1246.51 92.1605 1245.63 98.5666 1245.63 104.9H1265.63C1265.63 100.433 1266.25 95.7395 1267.55 90.7949L1248.21 85.7051ZM1245.63 104.9C1245.63 122.514 1249.86 137.572 1260.26 147.971L1274.4 133.829C1269.2 128.628 1265.63 119.686 1265.63 104.9H1245.63ZM1260.39 148.103C1271.21 158.516 1287.38 162.6 1306.48 162.6V142.6C1289.58 142.6 1279.65 138.884 1274.27 133.697L1260.39 148.103ZM1335.03 187.221C1329.59 189.81 1323.37 191.819 1316.29 193.18L1320.07 212.82C1328.59 211.181 1336.46 208.69 1343.63 205.279L1335.03 187.221ZM1316.6 193.126C1309.43 194.273 1303.54 194.8 1298.83 194.8V214.8C1304.92 214.8 1311.93 214.127 1319.76 212.874L1316.6 193.126ZM1298.83 194.8C1280.04 194.8 1264.5 192.626 1251.98 188.543L1245.78 207.557C1260.86 212.474 1278.61 214.8 1298.83 214.8V194.8ZM1252.16 188.605C1239.44 184.178 1229.31 178.229 1221.5 170.939L1207.86 185.561C1218.05 195.071 1230.72 202.322 1245.59 207.495L1252.16 188.605ZM1221.75 171.179C1214.15 163.577 1208.49 154.527 1204.77 143.896L1185.89 150.504C1190.57 163.873 1197.81 175.523 1207.61 185.321L1221.75 171.179ZM1204.77 143.896C1200.98 133.089 1199.03 121.022 1199.03 107.6H1179.03C1179.03 122.978 1181.27 137.311 1185.89 150.504L1204.77 143.896ZM1199.03 107.6C1199.03 96.6965 1200.8 85.3934 1204.43 73.6568L1185.33 67.7432C1181.16 81.2066 1179.03 94.5035 1179.03 107.6H1199.03ZM1204.37 73.8623C1208.16 62.4935 1213.96 52.2209 1221.84 42.9894L1206.62 30.0105C1197.09 41.1791 1190 53.7065 1185.39 67.5377L1204.37 73.8623ZM1221.93 42.8802C1229.67 33.5354 1239.49 25.8248 1251.55 19.7943L1242.61 1.90571C1228.27 9.07521 1216.19 18.4646 1206.53 30.1198L1221.93 42.8802ZM1251.63 19.7543C1263.42 13.7303 1277.98 10.5 1295.68 10.5V-9.50002C1275.58 -9.50002 1257.74 -5.83035 1242.53 1.94564L1251.63 19.7543ZM1295.68 10.5C1332.2 10.5 1358.08 21.7175 1375.22 42.8059L1390.74 30.194C1368.87 3.28247 1336.56 -9.50002 1295.68 -9.50002V10.5ZM1375.3 42.9114C1393.06 64.1583 1402.68 95.7194 1402.68 139.1H1422.68C1422.68 93.0806 1412.5 56.2417 1390.65 30.0886L1375.3 42.9114ZM1402.68 139.1C1402.68 167.637 1398.89 192.442 1391.53 213.675L1410.43 220.225C1418.67 196.458 1422.68 169.363 1422.68 139.1H1402.68ZM1391.49 213.788C1384.48 234.827 1373.49 252.285 1358.56 266.38L1372.29 280.92C1389.77 264.415 1402.48 244.073 1410.47 220.112L1391.49 213.788ZM1358.49 266.444C1343.87 280.518 1324.86 291.522 1301.14 299.241L1307.32 318.259C1333.39 309.778 1355.19 297.382 1372.36 280.856L1358.49 266.444ZM1301.24 299.207C1277.52 306.638 1248.99 310.607 1215.49 310.9L1215.67 330.9C1250.56 330.593 1281.14 326.462 1307.22 318.293L1301.24 299.207ZM1225.57 320.588C1225.27 310.877 1224.81 301.46 1224.21 292.335L1204.25 293.665C1204.84 302.54 1205.29 311.723 1205.58 321.212L1225.57 320.588ZM1224.21 292.335C1223.61 283.349 1223.01 274.063 1222.41 264.476L1202.45 265.724C1203.05 275.337 1203.65 284.651 1204.25 293.665L1224.21 292.335ZM1212.6 275.098C1230.05 274.792 1245.96 273.566 1260.28 271.386L1257.27 251.614C1244 253.634 1229 254.808 1212.25 255.102L1212.6 275.098ZM1260.49 271.352C1275.04 268.823 1288.11 264.825 1299.6 259.245L1290.86 241.255C1281.35 245.875 1270.12 249.377 1257.07 251.648L1260.49 271.352ZM1299.8 259.143C1311.45 253.153 1321.38 245.265 1329.48 235.476L1314.07 222.724C1307.78 230.335 1300.01 236.547 1290.66 241.357L1299.8 259.143ZM1329.35 235.629C1337.9 225.72 1344.33 213.509 1348.86 199.282L1329.8 193.218C1325.93 205.391 1320.66 215.08 1314.2 222.571L1329.35 235.629ZM1494.29 284L1486.99 290.834L1487.01 290.855L1487.03 290.875L1494.29 284ZM1466.84 95L1476.12 98.7378L1476.13 98.7141L1476.13 98.6903L1466.84 95ZM1500.14 43.7L1507.14 50.8467L1507.17 50.8091L1507.21 50.7711L1500.14 43.7ZM1550.54 11.75L1547.08 2.36901L1547.08 2.36901L1550.54 11.75ZM1649.99 4.09999L1648.08 13.9161L1648.21 13.9418L1648.35 13.9639L1649.99 4.09999ZM1678.34 10.85L1675.18 20.3368L1675.34 20.3901L1675.5 20.438L1678.34 10.85ZM1710.29 24.8L1719.71 28.1634L1722.41 20.585L1715.59 16.32L1710.29 24.8ZM1690.04 81.5L1685.35 90.3311L1695.57 95.7592L1699.46 84.8634L1690.04 81.5ZM1656.29 68.45L1653.54 78.0652L1653.57 78.0737L1653.6 78.082L1656.29 68.45ZM1581.14 68.45L1577.9 58.9905L1577.85 59.0051L1577.81 59.0201L1581.14 68.45ZM1553.69 86L1546.62 78.9289L1546.62 78.9289L1553.69 86ZM1532.09 203L1522.36 205.316L1522.4 205.454L1522.43 205.591L1532.09 203ZM1547.39 234.95L1539.45 241.034L1539.52 241.116L1539.58 241.197L1547.39 234.95ZM1575.29 256.55L1571.01 265.587L1571.11 265.634L1571.21 265.678L1575.29 256.55ZM1644.14 262.4L1642.67 252.508L1642.67 252.508L1644.14 262.4ZM1665.74 258.35L1668.06 268.078L1668.27 268.026L1668.49 267.965L1665.74 258.35ZM1682.39 252.5L1686.4 261.662L1686.4 261.662L1682.39 252.5ZM1695.44 246.65L1704.9 243.397L1701.3 232.933L1691.25 237.57L1695.44 246.65ZM1714.79 302.9L1719.97 311.452L1726.87 307.272L1724.25 299.647L1714.79 302.9ZM1672.94 319.1L1675.52 328.762L1672.94 319.1ZM1610.39 316.3C1561.56 316.3 1525.83 302.77 1501.55 277.125L1487.03 290.875C1516.15 321.63 1557.82 336.3 1610.39 336.3V316.3ZM1501.59 277.166C1477.45 251.379 1464.69 214.101 1464.69 163.85H1444.69C1444.69 217.399 1458.33 260.221 1486.99 290.834L1501.59 277.166ZM1464.69 163.85C1464.69 139.092 1468.58 117.447 1476.12 98.7378L1457.57 91.2622C1448.9 112.753 1444.69 137.008 1444.69 163.85H1464.69ZM1476.13 98.6903C1483.78 79.4436 1494.14 63.5632 1507.14 50.8467L1493.15 36.5533C1477.94 51.4368 1466.1 69.7563 1457.55 91.3097L1476.13 98.6903ZM1507.21 50.7711C1520.25 37.7361 1535.8 27.8523 1554 21.1309L1547.08 2.36901C1526.28 10.0476 1508.23 21.4639 1493.07 36.6289L1507.21 50.7711ZM1554 21.1309C1572.29 14.3782 1592.26 10.95 1613.99 10.95V-9.05002C1590.12 -9.05002 1567.79 -5.27827 1547.08 2.36901L1554 21.1309ZM1613.99 10.95C1626.67 10.95 1638.02 11.9598 1648.08 13.9161L1651.9 -5.71616C1640.36 -7.9598 1627.71 -9.05002 1613.99 -9.05002V10.95ZM1648.35 13.9639C1658.77 15.7007 1667.69 17.8405 1675.18 20.3368L1681.5 1.36315C1672.79 -1.54052 1662.81 -3.90076 1651.63 -5.76395L1648.35 13.9639ZM1675.5 20.438C1683.24 22.7319 1689.4 25.0866 1694.12 27.4443L1703.06 9.55572C1696.98 6.51341 1689.64 3.76807 1681.18 1.26201L1675.5 20.438ZM1694.12 27.4443C1699.48 30.1238 1703.02 32.0473 1704.99 33.28L1715.59 16.32C1712.76 14.5527 1708.5 12.2762 1703.06 9.55572L1694.12 27.4443ZM1700.87 21.4366L1680.62 78.1366L1699.46 84.8634L1719.71 28.1634L1700.87 21.4366ZM1694.73 72.6688C1684.37 67.1631 1672.42 62.5691 1658.98 58.818L1653.6 78.082C1665.96 81.5308 1676.51 85.6368 1685.35 90.3311L1694.73 72.6688ZM1659.04 58.8348C1645.36 54.9277 1630.01 53.05 1613.09 53.05V73.05C1628.57 73.05 1642.02 74.7723 1653.54 78.0652L1659.04 58.8348ZM1613.09 53.05C1601.16 53.05 1589.41 55.0427 1577.9 58.9905L1584.38 77.9095C1593.87 74.6573 1603.42 73.05 1613.09 73.05V53.05ZM1577.81 59.0201C1566.12 63.1462 1555.71 69.8368 1546.62 78.9289L1560.76 93.071C1567.87 85.9631 1575.76 80.9538 1584.47 77.8799L1577.81 59.0201ZM1546.62 78.9289C1537.63 87.9218 1530.64 99.4087 1525.45 113.04L1544.14 120.16C1548.54 108.591 1554.15 99.6781 1560.76 93.071L1546.62 78.9289ZM1525.45 113.04C1520.09 127.087 1517.59 143.667 1517.59 162.5H1537.59C1537.59 145.333 1539.89 131.313 1544.14 120.16L1525.45 113.04ZM1517.59 162.5C1517.59 177.594 1519.16 191.878 1522.36 205.316L1541.82 200.684C1539.02 188.922 1537.59 176.206 1537.59 162.5H1517.59ZM1522.43 205.591C1526.03 219.002 1531.66 230.874 1539.45 241.034L1555.33 228.866C1549.32 221.026 1544.75 211.598 1541.75 200.409L1522.43 205.591ZM1539.58 241.197C1547.82 251.492 1558.37 259.6 1571.01 265.587L1579.57 247.513C1569.41 242.7 1561.36 236.408 1555.2 228.703L1539.58 241.197ZM1571.21 265.678C1584.21 271.497 1599.48 274.2 1616.69 274.2V254.2C1601.5 254.2 1589.17 251.803 1579.37 247.422L1571.21 265.678ZM1616.69 274.2C1627.27 274.2 1636.92 273.579 1645.61 272.292L1642.67 252.508C1635.16 253.621 1626.51 254.2 1616.69 254.2V274.2ZM1645.61 272.292C1653.92 271.06 1661.41 269.66 1668.06 268.078L1663.42 248.622C1657.47 250.04 1650.56 251.34 1642.67 252.508L1645.61 272.292ZM1668.49 267.965C1675.12 266.071 1681.1 263.979 1686.4 261.662L1678.38 243.338C1674.08 245.221 1668.96 247.029 1662.99 248.735L1668.49 267.965ZM1686.4 261.662C1691.25 259.54 1695.66 257.563 1699.63 255.73L1691.25 237.57C1687.42 239.337 1683.13 241.26 1678.38 243.338L1686.4 261.662ZM1685.98 249.903L1705.33 306.153L1724.25 299.647L1704.9 243.397L1685.98 249.903ZM1709.61 294.348C1700.86 299.65 1687.93 304.753 1670.36 309.438L1675.52 328.762C1693.95 323.847 1708.92 318.15 1719.97 311.452L1709.61 294.348ZM1670.36 309.438C1653.4 313.962 1633.44 316.3 1610.39 316.3V336.3C1634.74 336.3 1656.48 333.838 1675.52 328.762L1670.36 309.438Z" fill="#F2E4E4" mask="url(#path-1-outside-1_101_4)"/>
</g>
<defs>
<filter id="filter0_d_101_4" x="0.512695" y="0.5" width="1718.28" height="333.8" filterUnits="userSpaceOnUse" color-interpolation-filters="sRGB">
<feFlood flood-opacity="0" result="BackgroundImageFix"/>
<feColorMatrix in="SourceAlpha" type="matrix" values="0 0 0 0 0 0 0 0 0 0 0 0 0 0 0 0 0 0 127 0" result="hardAlpha"/>
<feOffset dy="4"/>
<feGaussianBlur stdDeviation="2"/>
<feComposite in2="hardAlpha" operator="out"/>
<feColorMatrix type="matrix" values="0 0 0 0 0 0 0 0 0 0 0 0 0 0 0 0 0 0 0.25 0"/>
<feBlend mode="normal" in2="BackgroundImageFix" result="effect1_dropShadow_101_4"/>
<feBlend mode="normal" in="SourceGraphic" in2="effect1_dropShadow_101_4" result="shape"/>
</filter>
<linearGradient id="paint0_linear_101_4" x1="1378.27" y1="103.924" x2="308.606" y2="333.257" gradientUnits="userSpaceOnUse">
<stop offset="0.18" stop-color="#07C6F0"/>
<stop offset="0.491043" stop-color="#3A2083"/>
</linearGradient>
</defs>
</svg>
