<svg width="995" height="347" viewBox="0 0 995 347" fill="none" xmlns="http://www.w3.org/2000/svg">
<g filter="url(#filter0_d_2101_35)">
<mask id="path-1-outside-1_2101_35" maskUnits="userSpaceOnUse" x="400.043" y="0" width="344" height="332" fill="black">
<rect fill="white" x="400.043" width="344" height="332"/>
<path d="M538.167 322C525.867 295.9 513.717 268.75 501.717 240.55C489.717 212.35 478.317 184.45 467.517 156.85C456.717 129.25 446.667 102.85 437.367 77.65C428.367 52.45 420.567 29.95 413.967 10.15H491.367C497.367 28.15 503.817 47.65 510.717 68.65C517.917 89.35 525.117 110.05 532.317 130.75C539.817 151.45 547.017 171.25 553.917 190.15C560.817 209.05 567.267 225.4 573.267 239.2C578.967 225.4 585.267 209.05 592.167 190.15C599.367 171.25 606.567 151.45 613.767 130.75C621.267 110.05 628.467 89.35 635.367 68.65C642.567 47.65 649.167 28.15 655.167 10.15H729.867C722.967 29.95 715.017 52.45 706.017 77.65C697.017 102.85 687.117 129.25 676.317 156.85C665.517 184.45 654.117 212.35 642.117 240.55C630.117 268.75 617.967 295.9 605.667 322H538.167Z"/>
</mask>
<path d="M538.167 322L529.121 326.263L531.825 332H538.167V322ZM501.717 240.55L510.919 236.634L510.919 236.634L501.717 240.55ZM467.517 156.85L476.829 153.206L476.829 153.206L467.517 156.85ZM437.367 77.65L427.95 81.0133L427.967 81.0629L427.985 81.1122L437.367 77.65ZM413.967 10.15V0.149992H400.093L404.48 13.3123L413.967 10.15ZM491.367 10.15L500.854 6.98771L498.575 0.149992H491.367V10.15ZM510.717 68.65L501.217 71.7715L501.244 71.8536L501.272 71.9352L510.717 68.65ZM532.317 130.75L522.872 134.035L522.893 134.096L522.915 134.156L532.317 130.75ZM553.917 190.15L563.311 186.721L563.311 186.721L553.917 190.15ZM573.267 239.2L564.096 243.187L573.503 264.823L582.51 243.018L573.267 239.2ZM592.167 190.15L582.822 186.59L582.797 186.655L582.773 186.721L592.167 190.15ZM613.767 130.75L604.365 127.344L604.343 127.404L604.322 127.465L613.767 130.75ZM635.367 68.65L625.908 65.4067L625.894 65.4472L625.88 65.4877L635.367 68.65ZM655.167 10.15V0.149992H647.959L645.68 6.98772L655.167 10.15ZM729.867 10.15L739.31 13.4407L743.942 0.149992H729.867V10.15ZM706.017 77.65L715.434 81.0133L715.434 81.0133L706.017 77.65ZM676.317 156.85L685.629 160.494L685.629 160.494L676.317 156.85ZM642.117 240.55L632.915 236.634L632.915 236.634L642.117 240.55ZM605.667 322V332H612.009L614.713 326.263L605.667 322ZM547.213 317.737C534.97 291.759 522.872 264.725 510.919 236.634L492.515 244.466C504.562 272.775 516.764 300.041 529.121 326.263L547.213 317.737ZM510.919 236.634C498.956 208.521 487.593 180.712 476.829 153.206L458.205 160.494C469.041 188.188 480.478 216.179 492.515 244.466L510.919 236.634ZM476.829 153.206C466.051 125.66 456.024 99.3211 446.749 74.1878L427.985 81.1122C437.31 106.379 447.383 132.84 458.205 160.494L476.829 153.206ZM446.784 74.2866C437.802 49.1359 430.026 26.7048 423.454 6.98771L404.48 13.3123C411.108 33.1951 418.932 55.7641 427.95 81.0133L446.784 74.2866ZM413.967 20.15H491.367V0.149992H413.967V20.15ZM481.88 13.3123C487.875 31.2967 494.32 50.783 501.217 71.7715L520.217 65.5285C513.314 44.517 506.859 25.0033 500.854 6.98771L481.88 13.3123ZM501.272 71.9352C508.472 92.6352 515.672 113.335 522.872 134.035L541.762 127.465C534.562 106.765 527.362 86.0648 520.162 65.3648L501.272 71.9352ZM522.915 134.156C530.418 154.863 537.62 174.671 544.523 193.579L563.311 186.721C556.414 167.829 549.216 148.037 541.719 127.344L522.915 134.156ZM544.523 193.579C551.471 212.609 557.995 229.154 564.096 243.187L582.438 235.213C576.539 221.646 570.163 205.491 563.311 186.721L544.523 193.579ZM582.51 243.018C588.277 229.054 594.628 212.568 601.561 193.579L582.773 186.721C575.906 205.532 569.657 221.746 564.024 235.382L582.51 243.018ZM601.512 193.71C608.749 174.712 615.983 154.82 623.212 134.035L604.322 127.465C597.151 148.08 589.985 167.788 582.822 186.59L601.512 193.71ZM623.169 134.156C630.698 113.376 637.926 92.5948 644.854 71.8123L625.88 65.4877C619.008 86.1052 611.836 106.724 604.365 127.344L623.169 134.156ZM644.826 71.8932C652.034 50.8707 658.643 31.3434 664.654 13.3123L645.68 6.98772C639.691 24.9566 633.1 44.4293 625.908 65.4067L644.826 71.8932ZM655.167 20.15H729.867V0.149992H655.167V20.15ZM720.424 6.85924C713.534 26.6295 705.593 49.1046 696.6 74.2866L715.434 81.0133C724.441 55.7954 732.4 33.2705 739.31 13.4407L720.424 6.85924ZM696.6 74.2866C687.637 99.3832 677.772 125.689 667.005 153.206L685.629 160.494C696.462 132.811 706.397 106.317 715.434 81.0133L696.6 74.2866ZM667.005 153.206C656.241 180.712 644.878 208.521 632.915 236.634L651.319 244.466C663.356 216.179 674.793 188.188 685.629 160.494L667.005 153.206ZM632.915 236.634C620.962 264.725 608.864 291.759 596.621 317.737L614.713 326.263C627.07 300.041 639.272 272.775 651.319 244.466L632.915 236.634ZM605.667 312H538.167V332H605.667V312Z" fill="#F2E4E4" mask="url(#path-1-outside-1_2101_35)"/>
</g>
<g filter="url(#filter1_d_2101_35)">
<mask id="path-3-outside-2_2101_35" maskUnits="userSpaceOnUse" x="100" y="0" width="225" height="339" fill="black">
<rect fill="white" x="100" width="225" height="339"/>
<path d="M314.567 217.15C314.567 232.45 312.767 246.85 309.167 260.35C305.867 273.85 299.867 285.7 291.167 295.9C282.767 305.8 271.217 313.75 256.517 319.75C242.117 325.45 223.817 328.3 201.617 328.3C181.217 328.3 163.667 325.9 148.967 321.1C134.267 316 122.117 310.15 112.517 303.55L135.917 249.1C144.617 254.2 153.917 258.7 163.817 262.6C173.717 266.5 184.517 268.45 196.217 268.45C213.317 268.45 225.617 264.25 233.117 255.85C240.617 247.45 244.367 233.35 244.367 213.55V10.15H314.567V217.15Z"/>
</mask>
<path d="M309.167 260.35L299.504 257.773L299.477 257.874L299.453 257.975L309.167 260.35ZM291.167 295.9L283.558 289.411L283.55 289.42L283.542 289.43L291.167 295.9ZM256.517 319.75L260.197 329.048L260.247 329.029L260.296 329.008L256.517 319.75ZM148.967 321.1L145.689 330.548L145.776 330.578L145.863 330.606L148.967 321.1ZM112.517 303.55L103.329 299.602L100.089 307.141L106.851 311.79L112.517 303.55ZM135.917 249.1L140.974 240.473L131.202 234.744L126.729 245.152L135.917 249.1ZM163.817 262.6L160.151 271.904L160.151 271.904L163.817 262.6ZM233.117 255.85L240.576 262.51L240.576 262.51L233.117 255.85ZM244.367 10.15V0.149992H234.367V10.15H244.367ZM314.567 10.15H324.567V0.149992H314.567V10.15ZM304.567 217.15C304.567 231.662 302.86 245.189 299.504 257.773L318.829 262.927C322.673 248.511 324.567 233.238 324.567 217.15H304.567ZM299.453 257.975C296.51 270.016 291.207 280.443 283.558 289.411L298.775 302.389C308.526 290.957 315.224 277.684 318.881 262.725L299.453 257.975ZM283.542 289.43C276.388 297.862 266.277 304.965 252.738 310.492L260.296 329.008C276.156 322.535 289.146 313.738 298.792 302.37L283.542 289.43ZM252.836 310.452C239.998 315.534 223.058 318.3 201.617 318.3V338.3C224.575 338.3 244.235 335.366 260.197 329.048L252.836 310.452ZM201.617 318.3C181.955 318.3 165.507 315.981 152.071 311.594L145.863 330.606C161.827 335.819 180.478 338.3 201.617 338.3V318.3ZM152.244 311.652C138.127 306.754 126.844 301.265 118.182 295.31L106.851 311.79C117.389 319.035 130.407 325.246 145.689 330.548L152.244 311.652ZM121.704 307.498L145.104 253.048L126.729 245.152L103.329 299.602L121.704 307.498ZM130.86 257.727C140.029 263.102 149.797 267.825 160.151 271.904L167.482 253.296C158.036 249.575 149.204 245.298 140.974 240.473L130.86 257.727ZM160.151 271.904C171.33 276.308 183.387 278.45 196.217 278.45V258.45C185.646 258.45 176.104 256.692 167.482 253.296L160.151 271.904ZM196.217 278.45C214.687 278.45 230.377 273.933 240.576 262.51L225.657 249.19C220.856 254.567 211.947 258.45 196.217 258.45V278.45ZM240.576 262.51C250.568 251.32 254.367 234.114 254.367 213.55H234.367C234.367 232.586 230.666 243.58 225.657 249.19L240.576 262.51ZM254.367 213.55V10.15H234.367V213.55H254.367ZM244.367 20.15H314.567V0.149992H244.367V20.15ZM304.567 10.15V217.15H324.567V10.15H304.567Z" fill="#F2E4E4" mask="url(#path-3-outside-2_2101_35)"/>
</g>
<mask id="path-5-outside-3_2101_35" maskUnits="userSpaceOnUse" x="319.114" y="0" width="229" height="332" fill="black">
<rect fill="white" x="319.114" width="229" height="332"/>
<path d="M537.668 261.7V322H329.318V10.15H399.518V261.7H537.668Z"/>
</mask>
<path d="M537.668 261.7V322H329.318V10.15H399.518V261.7H537.668Z" fill="url(#paint0_linear_2101_35)"/>
<path d="M537.668 261.7H547.668V251.7H537.668V261.7ZM537.668 322V332H547.668V322H537.668ZM329.318 322H319.318V332H329.318V322ZM329.318 10.15V0.149992H319.318V10.15H329.318ZM399.518 10.15H409.518V0.149992H399.518V10.15ZM399.518 261.7H389.518V271.7H399.518V261.7ZM527.668 261.7V322H547.668V261.7H527.668ZM537.668 312H329.318V332H537.668V312ZM339.318 322V10.15H319.318V322H339.318ZM329.318 20.15H399.518V0.149992H329.318V20.15ZM389.518 10.15V261.7H409.518V10.15H389.518ZM399.518 271.7H537.668V251.7H399.518V271.7Z" fill="#F2E4E4" mask="url(#path-5-outside-3_2101_35)"/>
<mask id="path-7-outside-4_2101_35" maskUnits="userSpaceOnUse" x="738.354" y="0" width="91" height="332" fill="black">
<rect fill="white" x="738.354" width="91" height="332"/>
<path d="M748.486 10.15H818.686V322H748.486V10.15Z"/>
</mask>
<path d="M748.486 10.15V0.149992H738.486V10.15H748.486ZM818.686 10.15H828.686V0.149992H818.686V10.15ZM818.686 322V332H828.686V322H818.686ZM748.486 322H738.486V332H748.486V322ZM748.486 20.15H818.686V0.149992H748.486V20.15ZM808.686 10.15V322H828.686V10.15H808.686ZM818.686 312H748.486V332H818.686V312ZM758.486 322V10.15H738.486V322H758.486Z" fill="#F2E4E4" mask="url(#path-7-outside-4_2101_35)"/>
<defs>
<filter id="filter0_d_2101_35" x="396.093" y="0.149994" width="351.849" height="339.85" filterUnits="userSpaceOnUse" color-interpolation-filters="sRGB">
<feFlood flood-opacity="0" result="BackgroundImageFix"/>
<feColorMatrix in="SourceAlpha" type="matrix" values="0 0 0 0 0 0 0 0 0 0 0 0 0 0 0 0 0 0 127 0" result="hardAlpha"/>
<feOffset dy="4"/>
<feGaussianBlur stdDeviation="2"/>
<feComposite in2="hardAlpha" operator="out"/>
<feColorMatrix type="matrix" values="0 0 0 0 0 0 0 0 0 0 0 0 0 0 0 0 0 0 0.25 0"/>
<feBlend mode="normal" in2="BackgroundImageFix" result="effect1_dropShadow_2101_35"/>
<feBlend mode="normal" in="SourceGraphic" in2="effect1_dropShadow_2101_35" result="shape"/>
</filter>
<filter id="filter1_d_2101_35" x="96.0889" y="0.149994" width="232.478" height="346.15" filterUnits="userSpaceOnUse" color-interpolation-filters="sRGB">
<feFlood flood-opacity="0" result="BackgroundImageFix"/>
<feColorMatrix in="SourceAlpha" type="matrix" values="0 0 0 0 0 0 0 0 0 0 0 0 0 0 0 0 0 0 127 0" result="hardAlpha"/>
<feOffset dy="4"/>
<feGaussianBlur stdDeviation="2"/>
<feComposite in2="hardAlpha" operator="out"/>
<feColorMatrix type="matrix" values="0 0 0 0 0 0 0 0 0 0 0 0 0 0 0 0 0 0 0.25 0"/>
<feBlend mode="normal" in2="BackgroundImageFix" result="effect1_dropShadow_2101_35"/>
<feBlend mode="normal" in="SourceGraphic" in2="effect1_dropShadow_2101_35" result="shape"/>
</filter>
<linearGradient id="paint0_linear_2101_35" x1="560.482" y1="141.793" x2="269.892" y2="204.746" gradientUnits="userSpaceOnUse">
<stop stop-color="#3A2083"/>
<stop offset="0.865" stop-color="#07C6F0"/>
</linearGradient>
</defs>
</svg>
