<svg width="2000" height="2000" viewBox="0 0 2000 2000" fill="none" xmlns="http://www.w3.org/2000/svg">
<path d="M671 693.5L848.5 766.5L835.5 805L619.5 713.5V673.5L835.5 582L848.5 620.5L671 693.5ZM910.727 935.5H863.227L1032.73 451.5H1079.23L910.727 935.5ZM1093.62 620.5L1106.62 582L1322.62 673.5V713.5L1106.62 805L1093.62 766.5L1271.12 693.5L1093.62 620.5Z" fill="url(#paint0_linear_14_4)"/>
<path d="M130.989 1621.1C126.17 1621.1 119.947 1620.5 112.318 1619.29C104.689 1618.09 98.2652 1616.48 93.0455 1614.47L100.273 1568.7C104.288 1569.91 108.905 1570.91 114.125 1571.71C119.345 1572.52 124.163 1572.92 128.58 1572.92C147.852 1572.92 161.504 1566.89 169.534 1554.85C177.966 1543.21 182.182 1525.94 182.182 1503.05V1195.29H238.193V1502.45C238.193 1542.6 228.958 1572.32 210.489 1591.59C192.42 1611.26 165.92 1621.1 130.989 1621.1ZM209.886 1138.68C199.848 1138.68 191.216 1135.47 183.989 1129.04C177.163 1122.22 173.75 1113.18 173.75 1101.94C173.75 1090.7 177.163 1081.87 183.989 1075.44C191.216 1068.62 199.848 1065.2 209.886 1065.2C219.924 1065.2 228.356 1068.62 235.182 1075.44C242.409 1081.87 246.023 1090.7 246.023 1101.94C246.023 1113.18 242.409 1122.22 235.182 1129.04C228.356 1135.47 219.924 1138.68 209.886 1138.68ZM428.469 1514.5C393.938 1513.69 369.446 1506.27 354.991 1492.21C340.537 1478.16 333.31 1456.28 333.31 1426.57V1050.75L389.321 1041.11V1417.53C389.321 1426.77 390.124 1434.39 391.73 1440.42C393.336 1446.44 395.946 1451.26 399.56 1454.87C403.173 1458.49 407.991 1461.3 414.014 1463.3C420.037 1464.91 427.465 1466.32 436.298 1467.52L428.469 1514.5ZM743.72 1195.29C728.061 1253.91 709.592 1310.13 688.311 1363.93C667.433 1417.73 647.156 1465.91 627.482 1508.47H576.891C557.217 1465.91 536.74 1417.73 515.459 1363.93C494.581 1310.13 476.312 1253.91 460.653 1195.29H520.88C525.698 1214.97 531.319 1236.05 537.743 1258.53C544.569 1280.61 551.596 1302.7 558.823 1324.78C566.452 1346.46 574.08 1367.54 581.709 1388.02C589.338 1408.5 596.565 1426.77 603.391 1442.83C610.217 1426.77 617.444 1408.5 625.073 1388.02C632.702 1367.54 640.13 1346.46 647.357 1324.78C654.986 1302.7 662.012 1280.61 668.436 1258.53C675.262 1236.05 681.084 1214.97 685.902 1195.29H743.72ZM857.522 1508.47H801.51V1195.29H857.522V1508.47ZM829.215 1138.68C819.177 1138.68 810.544 1135.47 803.317 1129.04C796.491 1122.22 793.078 1113.18 793.078 1101.94C793.078 1090.7 796.491 1081.87 803.317 1075.44C810.544 1068.62 819.177 1065.2 829.215 1065.2C839.253 1065.2 847.684 1068.62 854.51 1075.44C861.737 1081.87 865.351 1090.7 865.351 1101.94C865.351 1113.18 861.737 1122.22 854.51 1129.04C847.684 1135.47 839.253 1138.68 829.215 1138.68ZM961.672 1177.22C984.559 1168.39 1006.84 1157.15 1028.52 1143.5C1050.21 1129.44 1070.08 1111.98 1088.15 1091.1H1127.9V1508.47H1071.89V1168.79C1067.07 1173.21 1061.05 1177.83 1053.82 1182.65C1046.99 1187.46 1039.37 1192.08 1030.93 1196.5C1022.9 1200.91 1014.27 1205.13 1005.04 1209.15C996.203 1213.16 987.57 1216.57 979.138 1219.38L961.672 1177.22ZM1547.35 1257.93C1547.35 1340.64 1526.68 1403.28 1485.32 1445.84C1444.36 1488 1383.33 1509.28 1302.23 1509.68L1300.42 1462.7C1325.72 1462.7 1348.4 1460.29 1368.48 1455.47C1388.96 1450.66 1406.82 1443.03 1422.08 1432.59C1437.34 1421.75 1449.99 1407.89 1460.02 1391.03C1470.46 1374.17 1478.09 1353.49 1482.91 1329C1472.47 1333.82 1460.63 1337.83 1447.38 1341.04C1434.13 1343.85 1420.47 1345.26 1406.42 1345.26C1382.73 1345.26 1362.66 1341.85 1346.19 1335.02C1329.73 1327.79 1316.28 1318.36 1305.84 1306.71C1295.4 1294.67 1287.77 1281.02 1282.96 1265.76C1278.54 1250.1 1276.33 1233.84 1276.33 1216.97C1276.33 1202.12 1278.94 1186.66 1284.16 1170.6C1289.38 1154.54 1297.21 1139.88 1307.65 1126.63C1318.49 1113.38 1332.14 1102.54 1348.6 1094.11C1365.07 1085.68 1384.54 1081.46 1407.02 1081.46C1429.91 1081.46 1449.99 1085.48 1467.25 1093.51C1484.92 1101.54 1499.57 1113.18 1511.22 1128.44C1523.26 1143.7 1532.3 1162.37 1538.32 1184.45C1544.34 1206.13 1547.35 1230.63 1547.35 1257.93ZM1412.44 1299.49C1426.5 1299.49 1439.75 1298.28 1452.19 1295.87C1464.64 1293.06 1476.69 1289.05 1488.33 1283.83C1488.73 1279.41 1488.93 1275.19 1488.93 1271.18C1488.93 1266.76 1488.93 1262.35 1488.93 1257.93C1488.93 1240.66 1487.73 1224.2 1485.32 1208.54C1482.91 1192.48 1478.49 1178.63 1472.07 1166.99C1466.05 1154.94 1457.82 1145.51 1447.38 1138.68C1436.94 1131.45 1423.69 1127.84 1407.63 1127.84C1394.38 1127.84 1383.13 1130.65 1373.9 1136.27C1364.66 1141.89 1357.04 1149.12 1351.01 1157.95C1344.99 1166.38 1340.57 1175.82 1337.76 1186.26C1335.35 1196.3 1334.15 1206.13 1334.15 1215.77C1334.15 1243.07 1340.57 1263.95 1353.42 1278.41C1366.67 1292.46 1386.35 1299.49 1412.44 1299.49ZM1769.86 1515.7C1744.57 1515.7 1722.29 1511.69 1703.01 1503.66C1684.14 1495.63 1668.08 1484.38 1654.83 1469.93C1641.98 1455.47 1632.35 1438.41 1625.92 1418.74C1619.5 1398.66 1616.29 1376.58 1616.29 1352.49C1616.29 1328.4 1619.7 1306.31 1626.52 1286.24C1633.75 1266.16 1643.79 1248.9 1656.64 1234.44C1669.49 1219.58 1685.15 1208.14 1703.61 1200.11C1722.49 1191.68 1743.36 1187.46 1766.25 1187.46C1780.3 1187.46 1794.36 1188.67 1808.41 1191.08C1822.46 1193.49 1835.91 1197.3 1848.76 1202.52L1836.11 1250.1C1827.68 1246.08 1817.85 1242.87 1806.6 1240.46C1795.76 1238.05 1784.12 1236.85 1771.67 1236.85C1740.35 1236.85 1716.26 1246.69 1699.4 1266.36C1682.94 1286.04 1674.71 1314.74 1674.71 1352.49C1674.71 1369.35 1676.51 1384.81 1680.13 1398.86C1684.14 1412.91 1690.16 1424.96 1698.19 1435C1706.63 1445.04 1717.27 1452.86 1730.11 1458.49C1742.96 1463.71 1758.62 1466.32 1777.09 1466.32C1791.95 1466.32 1805.4 1464.91 1817.44 1462.1C1829.49 1459.29 1838.93 1456.28 1845.75 1453.07L1853.58 1500.04C1850.37 1502.05 1845.75 1504.06 1839.73 1506.07C1833.71 1507.67 1826.88 1509.08 1819.25 1510.28C1811.62 1511.89 1803.39 1513.09 1794.56 1513.89C1786.13 1515.1 1777.9 1515.7 1769.86 1515.7Z" fill="url(#paint1_linear_14_4)"/>
<path d="M279.817 1590.16C279.817 1592.39 279.572 1594.47 279.081 1596.39C278.635 1598.3 277.809 1600 276.605 1601.47C275.445 1602.9 273.861 1604.04 271.854 1604.88C269.891 1605.69 267.415 1606.09 264.426 1606.09C262.909 1606.09 261.503 1605.95 260.21 1605.69C258.96 1605.46 257.823 1605.17 256.797 1604.82C255.771 1604.42 254.878 1604.01 254.12 1603.61C253.362 1603.17 252.759 1602.74 252.313 1602.34L254.856 1597.19C255.793 1597.86 256.998 1598.57 258.47 1599.33C259.987 1600.04 261.86 1600.4 264.091 1600.4C267.303 1600.4 269.645 1599.6 271.117 1597.99C272.59 1596.34 273.326 1593.53 273.326 1589.56V1558.71H279.817V1590.16ZM318.295 1604.08C316.868 1604.44 314.972 1604.82 312.607 1605.22C310.287 1605.62 307.588 1605.82 304.51 1605.82C301.833 1605.82 299.58 1605.44 297.751 1604.68C295.922 1603.88 294.45 1602.76 293.335 1601.34C292.219 1599.91 291.416 1598.24 290.926 1596.32C290.435 1594.36 290.189 1592.19 290.189 1589.83V1570.29H296.413V1588.49C296.413 1592.73 297.082 1595.76 298.42 1597.59C299.759 1599.42 302.012 1600.33 305.179 1600.33C305.848 1600.33 306.54 1600.31 307.254 1600.27C307.968 1600.22 308.637 1600.18 309.261 1600.13C309.886 1600.04 310.444 1599.98 310.934 1599.93C311.47 1599.84 311.849 1599.75 312.072 1599.66V1570.29H318.295V1604.08ZM340.795 1600.6C342.267 1600.6 343.561 1600.58 344.676 1600.53C345.836 1600.44 346.795 1600.31 347.554 1600.13V1589.76C347.108 1589.54 346.371 1589.36 345.345 1589.22C344.364 1589.05 343.159 1588.96 341.732 1588.96C340.795 1588.96 339.791 1589.02 338.72 1589.16C337.694 1589.29 336.735 1589.58 335.843 1590.03C334.995 1590.43 334.281 1591.01 333.701 1591.77C333.121 1592.48 332.832 1593.44 332.832 1594.65C332.832 1596.88 333.545 1598.44 334.973 1599.33C336.401 1600.18 338.341 1600.6 340.795 1600.6ZM340.26 1569.42C342.758 1569.42 344.855 1569.75 346.55 1570.42C348.29 1571.05 349.673 1571.96 350.699 1573.16C351.77 1574.32 352.528 1575.73 352.974 1577.38C353.42 1578.99 353.643 1580.77 353.643 1582.73V1604.48C353.108 1604.57 352.35 1604.71 351.368 1604.88C350.431 1605.02 349.361 1605.15 348.156 1605.29C346.951 1605.42 345.635 1605.53 344.208 1605.62C342.825 1605.75 341.442 1605.82 340.059 1605.82C338.096 1605.82 336.289 1605.62 334.638 1605.22C332.988 1604.82 331.56 1604.19 330.356 1603.34C329.151 1602.45 328.214 1601.29 327.545 1599.87C326.876 1598.44 326.541 1596.72 326.541 1594.71C326.541 1592.79 326.92 1591.14 327.679 1589.76C328.482 1588.38 329.552 1587.26 330.891 1586.41C332.229 1585.57 333.791 1584.94 335.575 1584.54C337.36 1584.14 339.233 1583.94 341.196 1583.94C341.821 1583.94 342.468 1583.98 343.137 1584.07C343.806 1584.12 344.431 1584.21 345.011 1584.34C345.635 1584.43 346.171 1584.52 346.617 1584.61C347.063 1584.7 347.375 1584.76 347.554 1584.81V1583.07C347.554 1582.04 347.442 1581.04 347.219 1580.06C346.996 1579.03 346.595 1578.14 346.015 1577.38C345.435 1576.58 344.632 1575.95 343.605 1575.51C342.624 1575.02 341.33 1574.77 339.724 1574.77C337.672 1574.77 335.865 1574.93 334.304 1575.24C332.787 1575.51 331.649 1575.8 330.891 1576.11L330.155 1570.96C330.958 1570.6 332.296 1570.26 334.17 1569.95C336.044 1569.6 338.074 1569.42 340.26 1569.42ZM363.98 1571.29C365.407 1570.93 367.303 1570.55 369.668 1570.15C372.032 1569.75 374.754 1569.55 377.832 1569.55C380.598 1569.55 382.896 1569.95 384.725 1570.76C386.554 1571.51 388.004 1572.61 389.074 1574.03C390.19 1575.42 390.97 1577.09 391.417 1579.05C391.863 1581.02 392.086 1583.18 392.086 1585.54V1605.08H385.862V1586.88C385.862 1584.74 385.706 1582.91 385.394 1581.4C385.126 1579.88 384.658 1578.65 383.989 1577.71C383.319 1576.78 382.427 1576.11 381.312 1575.71C380.196 1575.26 378.813 1575.04 377.163 1575.04C376.494 1575.04 375.802 1575.06 375.088 1575.1C374.375 1575.15 373.683 1575.22 373.014 1575.31C372.389 1575.35 371.809 1575.42 371.274 1575.51C370.783 1575.6 370.426 1575.66 370.203 1575.71V1605.08H363.98V1571.29ZM446.201 1599.46V1605.08H418.296V1558.71H424.787V1599.46H446.201ZM449.87 1587.75C449.87 1584.67 450.317 1582 451.209 1579.72C452.101 1577.4 453.283 1575.48 454.756 1573.97C456.228 1572.45 457.923 1571.31 459.841 1570.55C461.76 1569.8 463.723 1569.42 465.73 1569.42C470.415 1569.42 474.006 1570.89 476.504 1573.83C479.003 1576.73 480.252 1581.17 480.252 1587.15C480.252 1587.42 480.252 1587.77 480.252 1588.22C480.252 1588.62 480.229 1589 480.185 1589.36H456.362C456.629 1592.97 457.678 1595.72 459.507 1597.59C461.336 1599.46 464.191 1600.4 468.072 1600.4C470.258 1600.4 472.088 1600.22 473.56 1599.87C475.077 1599.46 476.214 1599.08 476.973 1598.73L477.843 1603.95C477.084 1604.35 475.746 1604.77 473.827 1605.22C471.954 1605.66 469.812 1605.89 467.403 1605.89C464.37 1605.89 461.737 1605.44 459.507 1604.55C457.321 1603.61 455.514 1602.34 454.086 1600.73C452.659 1599.13 451.588 1597.23 450.874 1595.05C450.205 1592.82 449.87 1590.38 449.87 1587.75ZM473.761 1584.34C473.805 1581.53 473.091 1579.23 471.619 1577.45C470.192 1575.62 468.206 1574.7 465.663 1574.7C464.236 1574.7 462.964 1574.99 461.849 1575.57C460.778 1576.11 459.864 1576.82 459.105 1577.71C458.347 1578.61 457.745 1579.63 457.298 1580.79C456.897 1581.95 456.629 1583.14 456.495 1584.34H473.761ZM519.908 1587.69C519.908 1590.45 519.506 1592.95 518.703 1595.18C517.9 1597.41 516.762 1599.33 515.29 1600.94C513.863 1602.54 512.145 1603.79 510.137 1604.68C508.13 1605.53 505.944 1605.95 503.579 1605.95C501.215 1605.95 499.029 1605.53 497.021 1604.68C495.014 1603.79 493.274 1602.54 491.802 1600.94C490.374 1599.33 489.259 1597.41 488.456 1595.18C487.653 1592.95 487.251 1590.45 487.251 1587.69C487.251 1584.96 487.653 1582.49 488.456 1580.26C489.259 1577.98 490.374 1576.04 491.802 1574.44C493.274 1572.83 495.014 1571.6 497.021 1570.76C499.029 1569.86 501.215 1569.42 503.579 1569.42C505.944 1569.42 508.13 1569.86 510.137 1570.76C512.145 1571.6 513.863 1572.83 515.29 1574.44C516.762 1576.04 517.9 1577.98 518.703 1580.26C519.506 1582.49 519.908 1584.96 519.908 1587.69ZM513.416 1587.69C513.416 1583.76 512.524 1580.66 510.74 1578.38C509 1576.06 506.613 1574.9 503.579 1574.9C500.546 1574.9 498.137 1576.06 496.352 1578.38C494.612 1580.66 493.742 1583.76 493.742 1587.69C493.742 1591.61 494.612 1594.73 496.352 1597.05C498.137 1599.33 500.546 1600.47 503.579 1600.47C506.613 1600.47 509 1599.33 510.74 1597.05C512.524 1594.73 513.416 1591.61 513.416 1587.69ZM528.663 1571.29C530.091 1570.93 531.987 1570.55 534.352 1570.15C536.716 1569.75 539.437 1569.55 542.516 1569.55C545.282 1569.55 547.579 1569.95 549.408 1570.76C551.238 1571.51 552.687 1572.61 553.758 1574.03C554.873 1575.42 555.654 1577.09 556.1 1579.05C556.546 1581.02 556.769 1583.18 556.769 1585.54V1605.08H550.546V1586.88C550.546 1584.74 550.39 1582.91 550.078 1581.4C549.81 1579.88 549.341 1578.65 548.672 1577.71C548.003 1576.78 547.111 1576.11 545.996 1575.71C544.88 1575.26 543.497 1575.04 541.847 1575.04C541.177 1575.04 540.486 1575.06 539.772 1575.1C539.058 1575.15 538.367 1575.22 537.698 1575.31C537.073 1575.35 536.493 1575.42 535.958 1575.51C535.467 1575.6 535.11 1575.66 534.887 1575.71V1605.08H528.663V1571.29ZM565.149 1587.75C565.149 1584.67 565.595 1582 566.487 1579.72C567.38 1577.4 568.562 1575.48 570.034 1573.97C571.506 1572.45 573.202 1571.31 575.12 1570.55C577.038 1569.8 579.001 1569.42 581.009 1569.42C585.693 1569.42 589.285 1570.89 591.783 1573.83C594.281 1576.73 595.53 1581.17 595.53 1587.15C595.53 1587.42 595.53 1587.77 595.53 1588.22C595.53 1588.62 595.508 1589 595.463 1589.36H571.64C571.908 1592.97 572.956 1595.72 574.785 1597.59C576.614 1599.46 579.47 1600.4 583.351 1600.4C585.537 1600.4 587.366 1600.22 588.838 1599.87C590.355 1599.46 591.493 1599.08 592.251 1598.73L593.121 1603.95C592.363 1604.35 591.024 1604.77 589.106 1605.22C587.232 1605.66 585.091 1605.89 582.682 1605.89C579.648 1605.89 577.016 1605.44 574.785 1604.55C572.599 1603.61 570.793 1602.34 569.365 1600.73C567.937 1599.13 566.867 1597.23 566.153 1595.05C565.484 1592.82 565.149 1590.38 565.149 1587.75ZM589.039 1584.34C589.084 1581.53 588.37 1579.23 586.898 1577.45C585.47 1575.62 583.485 1574.7 580.942 1574.7C579.514 1574.7 578.243 1574.99 577.128 1575.57C576.057 1576.11 575.142 1576.82 574.384 1577.71C573.625 1578.61 573.023 1579.63 572.577 1580.79C572.176 1581.95 571.908 1583.14 571.774 1584.34H589.039ZM614.91 1605.75C611.073 1605.66 608.352 1604.84 606.746 1603.28C605.139 1601.72 604.336 1599.29 604.336 1595.98V1554.23L610.56 1553.16V1594.98C610.56 1596.01 610.649 1596.85 610.828 1597.52C611.006 1598.19 611.296 1598.73 611.698 1599.13C612.099 1599.53 612.634 1599.84 613.304 1600.07C613.973 1600.24 614.798 1600.4 615.78 1600.53L614.91 1605.75ZM676.133 1558.71C674.438 1563.62 672.809 1568.17 671.248 1572.36C669.731 1576.51 668.236 1580.46 666.764 1584.21C665.292 1587.95 663.82 1591.54 662.347 1594.98C660.92 1598.37 659.448 1601.74 657.931 1605.08H651.841C650.324 1601.74 648.83 1598.37 647.358 1594.98C645.93 1591.54 644.458 1587.95 642.941 1584.21C641.469 1580.46 639.952 1576.51 638.39 1572.36C636.829 1568.17 635.223 1563.62 633.572 1558.71H640.733C643.142 1565.76 645.506 1572.54 647.826 1579.05C650.146 1585.57 652.533 1591.68 654.986 1597.39C657.44 1591.72 659.827 1585.63 662.147 1579.12C664.467 1572.56 666.809 1565.76 669.173 1558.71H676.133ZM692.251 1600.6C693.723 1600.6 695.017 1600.58 696.132 1600.53C697.292 1600.44 698.251 1600.31 699.01 1600.13V1589.76C698.564 1589.54 697.827 1589.36 696.801 1589.22C695.82 1589.05 694.615 1588.96 693.188 1588.96C692.251 1588.96 691.247 1589.02 690.176 1589.16C689.15 1589.29 688.191 1589.58 687.299 1590.03C686.451 1590.43 685.737 1591.01 685.157 1591.77C684.577 1592.48 684.288 1593.44 684.288 1594.65C684.288 1596.88 685.001 1598.44 686.429 1599.33C687.857 1600.18 689.797 1600.6 692.251 1600.6ZM691.716 1569.42C694.214 1569.42 696.311 1569.75 698.006 1570.42C699.746 1571.05 701.129 1571.96 702.155 1573.16C703.226 1574.32 703.984 1575.73 704.43 1577.38C704.876 1578.99 705.099 1580.77 705.099 1582.73V1604.48C704.564 1604.57 703.806 1604.71 702.824 1604.88C701.887 1605.02 700.817 1605.15 699.612 1605.29C698.407 1605.42 697.091 1605.53 695.664 1605.62C694.281 1605.75 692.898 1605.82 691.515 1605.82C689.552 1605.82 687.745 1605.62 686.094 1605.22C684.444 1604.82 683.016 1604.19 681.812 1603.34C680.607 1602.45 679.67 1601.29 679.001 1599.87C678.332 1598.44 677.997 1596.72 677.997 1594.71C677.997 1592.79 678.376 1591.14 679.135 1589.76C679.938 1588.38 681.008 1587.26 682.347 1586.41C683.685 1585.57 685.247 1584.94 687.031 1584.54C688.816 1584.14 690.689 1583.94 692.652 1583.94C693.277 1583.94 693.924 1583.98 694.593 1584.07C695.262 1584.12 695.887 1584.21 696.467 1584.34C697.091 1584.43 697.627 1584.52 698.073 1584.61C698.519 1584.7 698.831 1584.76 699.01 1584.81V1583.07C699.01 1582.04 698.898 1581.04 698.675 1580.06C698.452 1579.03 698.051 1578.14 697.471 1577.38C696.891 1576.58 696.088 1575.95 695.061 1575.51C694.08 1575.02 692.786 1574.77 691.18 1574.77C689.128 1574.77 687.321 1574.93 685.76 1575.24C684.243 1575.51 683.105 1575.8 682.347 1576.11L681.611 1570.96C682.414 1570.6 683.752 1570.26 685.626 1569.95C687.5 1569.6 689.53 1569.42 691.716 1569.42ZM738.523 1574.97C737.586 1576 736.337 1577.45 734.775 1579.32C733.259 1581.19 731.608 1583.27 729.823 1585.54C728.083 1587.82 726.321 1590.21 724.537 1592.7C722.797 1595.2 721.258 1597.59 719.919 1599.87H739.058V1605.08H712.491V1600.94C713.562 1598.97 714.878 1596.81 716.44 1594.44C718.001 1592.08 719.629 1589.74 721.325 1587.42C723.065 1585.05 724.737 1582.85 726.344 1580.79C727.994 1578.7 729.422 1576.93 730.626 1575.51H713.428V1570.29H738.523V1574.97ZM750.309 1587.75C750.309 1589.54 750.487 1591.21 750.844 1592.77C751.201 1594.29 751.781 1595.63 752.584 1596.79C753.387 1597.9 754.413 1598.79 755.662 1599.46C756.956 1600.09 758.495 1600.4 760.28 1600.4C761.975 1600.4 763.537 1600.11 764.964 1599.53C766.392 1598.95 767.485 1598.35 768.243 1597.72V1575.77C767.619 1575.6 766.771 1575.44 765.7 1575.31C764.674 1575.17 763.224 1575.1 761.351 1575.1C758.005 1575.1 755.328 1576.2 753.32 1578.38C751.313 1580.57 750.309 1583.69 750.309 1587.75ZM743.818 1587.75C743.818 1584.94 744.219 1582.42 745.022 1580.19C745.87 1577.92 747.052 1576 748.569 1574.44C750.086 1572.87 751.915 1571.67 754.056 1570.82C756.198 1569.97 758.607 1569.55 761.284 1569.55C764.184 1569.55 766.726 1569.77 768.912 1570.22C771.143 1570.62 772.995 1571 774.467 1571.36V1617.46H768.243V1603.55C767.485 1604.04 766.325 1604.55 764.763 1605.08C763.247 1605.62 761.484 1605.89 759.477 1605.89C756.979 1605.89 754.748 1605.44 752.785 1604.55C750.867 1603.66 749.238 1602.41 747.9 1600.8C746.561 1599.2 745.535 1597.28 744.822 1595.05C744.152 1592.82 743.818 1590.38 743.818 1587.75ZM812.869 1604.08C811.442 1604.44 809.546 1604.82 807.181 1605.22C804.861 1605.62 802.162 1605.82 799.084 1605.82C796.407 1605.82 794.154 1605.44 792.325 1604.68C790.496 1603.88 789.024 1602.76 787.909 1601.34C786.793 1599.91 785.99 1598.24 785.5 1596.32C785.009 1594.36 784.763 1592.19 784.763 1589.83V1570.29H790.987V1588.49C790.987 1592.73 791.656 1595.76 792.994 1597.59C794.333 1599.42 796.586 1600.33 799.753 1600.33C800.422 1600.33 801.114 1600.31 801.828 1600.27C802.542 1600.22 803.211 1600.18 803.835 1600.13C804.46 1600.04 805.018 1599.98 805.508 1599.93C806.044 1599.84 806.423 1599.75 806.646 1599.66V1570.29H812.869V1604.08ZM821.65 1587.75C821.65 1584.67 822.097 1582 822.989 1579.72C823.881 1577.4 825.063 1575.48 826.536 1573.97C828.008 1572.45 829.703 1571.31 831.621 1570.55C833.54 1569.8 835.503 1569.42 837.51 1569.42C842.195 1569.42 845.786 1570.89 848.284 1573.83C850.783 1576.73 852.032 1581.17 852.032 1587.15C852.032 1587.42 852.032 1587.77 852.032 1588.22C852.032 1588.62 852.009 1589 851.965 1589.36H828.142C828.409 1592.97 829.458 1595.72 831.287 1597.59C833.116 1599.46 835.971 1600.4 839.852 1600.4C842.039 1600.4 843.868 1600.22 845.34 1599.87C846.857 1599.46 847.994 1599.08 848.753 1598.73L849.623 1603.95C848.864 1604.35 847.526 1604.77 845.608 1605.22C843.734 1605.66 841.592 1605.89 839.183 1605.89C836.15 1605.89 833.517 1605.44 831.287 1604.55C829.101 1603.61 827.294 1602.34 825.866 1600.73C824.439 1599.13 823.368 1597.23 822.654 1595.05C821.985 1592.82 821.65 1590.38 821.65 1587.75ZM845.541 1584.34C845.585 1581.53 844.871 1579.23 843.399 1577.45C841.972 1575.62 839.986 1574.7 837.443 1574.7C836.016 1574.7 834.744 1574.99 833.629 1575.57C832.558 1576.11 831.644 1576.82 830.885 1577.71C830.127 1578.61 829.525 1579.63 829.079 1580.79C828.677 1581.95 828.409 1583.14 828.275 1584.34H845.541ZM884.059 1574.97C883.122 1576 881.873 1577.45 880.311 1579.32C878.794 1581.19 877.144 1583.27 875.359 1585.54C873.619 1587.82 871.857 1590.21 870.073 1592.7C868.333 1595.2 866.794 1597.59 865.455 1599.87H884.594V1605.08H858.027V1600.94C859.098 1598.97 860.414 1596.81 861.975 1594.44C863.537 1592.08 865.165 1589.74 866.861 1587.42C868.6 1585.05 870.273 1582.85 871.88 1580.79C873.53 1578.7 874.958 1576.93 876.162 1575.51H858.964V1570.29H884.059V1574.97ZM908.36 1558.71H914.852V1605.08H908.36V1558.71ZM947.746 1601.6C947.211 1601.96 946.162 1602.43 944.601 1603.01C943.084 1603.55 941.299 1603.81 939.247 1603.81C937.15 1603.81 935.165 1603.48 933.291 1602.81C931.462 1602.14 929.856 1601.11 928.473 1599.73C927.09 1598.3 925.997 1596.54 925.194 1594.44C924.391 1592.35 923.99 1589.85 923.99 1586.95C923.99 1584.41 924.369 1582.09 925.127 1579.99C925.886 1577.85 926.979 1576.02 928.406 1574.5C929.879 1572.94 931.663 1571.74 933.76 1570.89C935.857 1570 938.221 1569.55 940.853 1569.55C943.753 1569.55 946.274 1569.77 948.415 1570.22C950.601 1570.62 952.43 1571 953.902 1571.36V1602.41C953.902 1607.76 952.52 1611.64 949.754 1614.05C946.988 1616.46 942.794 1617.67 937.173 1617.67C934.987 1617.67 932.912 1617.49 930.949 1617.13C929.031 1616.77 927.358 1616.35 925.93 1615.86L927.068 1610.44C928.317 1610.93 929.834 1611.35 931.618 1611.71C933.448 1612.11 935.344 1612.31 937.307 1612.31C941.009 1612.31 943.664 1611.58 945.27 1610.1C946.921 1608.63 947.746 1606.29 947.746 1603.08V1601.6ZM947.679 1575.77C947.054 1575.6 946.207 1575.44 945.136 1575.31C944.11 1575.13 942.705 1575.04 940.92 1575.04C937.574 1575.04 934.987 1576.13 933.158 1578.32C931.373 1580.5 930.481 1583.4 930.481 1587.02C930.481 1589.02 930.726 1590.74 931.217 1592.17C931.752 1593.6 932.444 1594.78 933.291 1595.72C934.184 1596.65 935.187 1597.34 936.303 1597.79C937.463 1598.24 938.645 1598.46 939.849 1598.46C941.5 1598.46 943.017 1598.24 944.4 1597.79C945.783 1597.3 946.876 1596.74 947.679 1596.12V1575.77ZM975.057 1605.75C971.221 1605.66 968.499 1604.84 966.893 1603.28C965.287 1601.72 964.484 1599.29 964.484 1595.98V1554.23L970.708 1553.16V1594.98C970.708 1596.01 970.797 1596.85 970.975 1597.52C971.154 1598.19 971.444 1598.73 971.845 1599.13C972.247 1599.53 972.782 1599.84 973.451 1600.07C974.12 1600.24 974.946 1600.4 975.927 1600.53L975.057 1605.75ZM980.975 1587.75C980.975 1584.67 981.422 1582 982.314 1579.72C983.206 1577.4 984.388 1575.48 985.861 1573.97C987.333 1572.45 989.028 1571.31 990.946 1570.55C992.865 1569.8 994.828 1569.42 996.835 1569.42C1001.52 1569.42 1005.11 1570.89 1007.61 1573.83C1010.11 1576.73 1011.36 1581.17 1011.36 1587.15C1011.36 1587.42 1011.36 1587.77 1011.36 1588.22C1011.36 1588.62 1011.33 1589 1011.29 1589.36H987.467C987.734 1592.97 988.783 1595.72 990.612 1597.59C992.441 1599.46 995.296 1600.4 999.177 1600.4C1001.36 1600.4 1003.19 1600.22 1004.66 1599.87C1006.18 1599.46 1007.32 1599.08 1008.08 1598.73L1008.95 1603.95C1008.19 1604.35 1006.85 1604.77 1004.93 1605.22C1003.06 1605.66 1000.92 1605.89 998.508 1605.89C995.475 1605.89 992.842 1605.44 990.612 1604.55C988.426 1603.61 986.619 1602.34 985.191 1600.73C983.764 1599.13 982.693 1597.23 981.979 1595.05C981.31 1592.82 980.975 1590.38 980.975 1587.75ZM1004.87 1584.34C1004.91 1581.53 1004.2 1579.23 1002.72 1577.45C1001.3 1575.62 999.311 1574.7 996.768 1574.7C995.341 1574.7 994.069 1574.99 992.954 1575.57C991.883 1576.11 990.969 1576.82 990.21 1577.71C989.452 1578.61 988.85 1579.63 988.403 1580.79C988.002 1581.95 987.734 1583.14 987.6 1584.34H1004.87ZM1028.39 1600.6C1030.94 1600.6 1032.81 1600.27 1034.02 1599.6C1035.26 1598.93 1035.89 1597.86 1035.89 1596.39C1035.89 1594.87 1035.29 1593.66 1034.08 1592.77C1032.88 1591.88 1030.89 1590.88 1028.13 1589.76C1026.79 1589.22 1025.49 1588.69 1024.24 1588.15C1023.04 1587.57 1021.99 1586.91 1021.1 1586.15C1020.21 1585.39 1019.49 1584.47 1018.96 1583.4C1018.42 1582.33 1018.16 1581.02 1018.16 1579.45C1018.16 1576.38 1019.29 1573.95 1021.57 1572.16C1023.84 1570.33 1026.94 1569.42 1030.87 1569.42C1031.85 1569.42 1032.83 1569.48 1033.81 1569.62C1034.8 1569.71 1035.71 1569.84 1036.56 1570.02C1037.41 1570.15 1038.14 1570.31 1038.77 1570.49C1039.44 1570.67 1039.95 1570.82 1040.31 1570.96L1039.17 1576.31C1038.5 1575.95 1037.45 1575.6 1036.02 1575.24C1034.6 1574.84 1032.88 1574.64 1030.87 1574.64C1029.13 1574.64 1027.61 1574.99 1026.32 1575.71C1025.03 1576.38 1024.38 1577.45 1024.38 1578.92C1024.38 1579.68 1024.51 1580.35 1024.78 1580.93C1025.09 1581.51 1025.54 1582.04 1026.12 1582.53C1026.74 1582.98 1027.5 1583.4 1028.39 1583.8C1029.29 1584.21 1030.36 1584.63 1031.61 1585.08C1033.26 1585.7 1034.73 1586.33 1036.02 1586.95C1037.32 1587.53 1038.41 1588.22 1039.3 1589.02C1040.24 1589.83 1040.95 1590.81 1041.44 1591.97C1041.93 1593.08 1042.18 1594.47 1042.18 1596.12C1042.18 1599.33 1040.97 1601.76 1038.57 1603.41C1036.2 1605.06 1032.81 1605.89 1028.39 1605.89C1025.32 1605.89 1022.91 1605.62 1021.17 1605.08C1019.43 1604.59 1018.24 1604.21 1017.62 1603.95L1018.76 1598.59C1019.47 1598.86 1020.61 1599.26 1022.17 1599.8C1023.73 1600.33 1025.81 1600.6 1028.39 1600.6ZM1056.39 1605.08H1050.16V1570.29H1056.39V1605.08ZM1053.24 1564C1052.12 1564 1051.17 1563.64 1050.36 1562.93C1049.6 1562.17 1049.23 1561.16 1049.23 1559.91C1049.23 1558.67 1049.6 1557.68 1050.36 1556.97C1051.17 1556.21 1052.12 1555.83 1053.24 1555.83C1054.36 1555.83 1055.29 1556.21 1056.05 1556.97C1056.85 1557.68 1057.26 1558.67 1057.26 1559.91C1057.26 1561.16 1056.85 1562.17 1056.05 1562.93C1055.29 1563.64 1054.36 1564 1053.24 1564ZM1078.87 1600.6C1080.34 1600.6 1081.63 1600.58 1082.75 1600.53C1083.91 1600.44 1084.87 1600.31 1085.62 1600.13V1589.76C1085.18 1589.54 1084.44 1589.36 1083.42 1589.22C1082.43 1589.05 1081.23 1588.96 1079.8 1588.96C1078.87 1588.96 1077.86 1589.02 1076.79 1589.16C1075.76 1589.29 1074.81 1589.58 1073.91 1590.03C1073.07 1590.43 1072.35 1591.01 1071.77 1591.77C1071.19 1592.48 1070.9 1593.44 1070.9 1594.65C1070.9 1596.88 1071.62 1598.44 1073.04 1599.33C1074.47 1600.18 1076.41 1600.6 1078.87 1600.6ZM1078.33 1569.42C1080.83 1569.42 1082.93 1569.75 1084.62 1570.42C1086.36 1571.05 1087.74 1571.96 1088.77 1573.16C1089.84 1574.32 1090.6 1575.73 1091.04 1577.38C1091.49 1578.99 1091.71 1580.77 1091.71 1582.73V1604.48C1091.18 1604.57 1090.42 1604.71 1089.44 1604.88C1088.5 1605.02 1087.43 1605.15 1086.23 1605.29C1085.02 1605.42 1083.71 1605.53 1082.28 1605.62C1080.9 1605.75 1079.51 1605.82 1078.13 1605.82C1076.17 1605.82 1074.36 1605.62 1072.71 1605.22C1071.06 1604.82 1069.63 1604.19 1068.43 1603.34C1067.22 1602.45 1066.28 1601.29 1065.62 1599.87C1064.95 1598.44 1064.61 1596.72 1064.61 1594.71C1064.61 1592.79 1064.99 1591.14 1065.75 1589.76C1066.55 1588.38 1067.62 1587.26 1068.96 1586.41C1070.3 1585.57 1071.86 1584.94 1073.65 1584.54C1075.43 1584.14 1077.3 1583.94 1079.27 1583.94C1079.89 1583.94 1080.54 1583.98 1081.21 1584.07C1081.88 1584.12 1082.5 1584.21 1083.08 1584.34C1083.71 1584.43 1084.24 1584.52 1084.69 1584.61C1085.13 1584.7 1085.45 1584.76 1085.62 1584.81V1583.07C1085.62 1582.04 1085.51 1581.04 1085.29 1580.06C1085.07 1579.03 1084.67 1578.14 1084.09 1577.38C1083.51 1576.58 1082.7 1575.95 1081.68 1575.51C1080.69 1575.02 1079.4 1574.77 1077.79 1574.77C1075.74 1574.77 1073.94 1574.93 1072.37 1575.24C1070.86 1575.51 1069.72 1575.8 1068.96 1576.11L1068.23 1570.96C1069.03 1570.6 1070.37 1570.26 1072.24 1569.95C1074.11 1569.6 1076.14 1569.42 1078.33 1569.42ZM1110.15 1600.6C1112.69 1600.6 1114.56 1600.27 1115.77 1599.6C1117.02 1598.93 1117.64 1597.86 1117.64 1596.39C1117.64 1594.87 1117.04 1593.66 1115.84 1592.77C1114.63 1591.88 1112.65 1590.88 1109.88 1589.76C1108.54 1589.22 1107.25 1588.69 1106 1588.15C1104.79 1587.57 1103.75 1586.91 1102.85 1586.15C1101.96 1585.39 1101.25 1584.47 1100.71 1583.4C1100.18 1582.33 1099.91 1581.02 1099.91 1579.45C1099.91 1576.38 1101.05 1573.95 1103.32 1572.16C1105.6 1570.33 1108.7 1569.42 1112.62 1569.42C1113.61 1569.42 1114.59 1569.48 1115.57 1569.62C1116.55 1569.71 1117.46 1569.84 1118.31 1570.02C1119.16 1570.15 1119.9 1570.31 1120.52 1570.49C1121.19 1570.67 1121.7 1570.82 1122.06 1570.96L1120.92 1576.31C1120.25 1575.95 1119.2 1575.6 1117.78 1575.24C1116.35 1574.84 1114.63 1574.64 1112.62 1574.64C1110.88 1574.64 1109.37 1574.99 1108.07 1575.71C1106.78 1576.38 1106.13 1577.45 1106.13 1578.92C1106.13 1579.68 1106.27 1580.35 1106.53 1580.93C1106.85 1581.51 1107.29 1582.04 1107.87 1582.53C1108.5 1582.98 1109.26 1583.4 1110.15 1583.8C1111.04 1584.21 1112.11 1584.63 1113.36 1585.08C1115.01 1585.7 1116.48 1586.33 1117.78 1586.95C1119.07 1587.53 1120.16 1588.22 1121.06 1589.02C1121.99 1589.83 1122.71 1590.81 1123.2 1591.97C1123.69 1593.08 1123.93 1594.47 1123.93 1596.12C1123.93 1599.33 1122.73 1601.76 1120.32 1603.41C1117.95 1605.06 1114.56 1605.89 1110.15 1605.89C1107.07 1605.89 1104.66 1605.62 1102.92 1605.08C1101.18 1604.59 1100 1604.21 1099.37 1603.95L1100.51 1598.59C1101.23 1598.86 1102.36 1599.26 1103.92 1599.8C1105.49 1600.33 1107.56 1600.6 1110.15 1600.6Z" fill="black"/>
<path d="M1320.07 1606.09C1316.82 1606.09 1313.85 1605.55 1311.17 1604.48C1308.5 1603.41 1306.2 1601.85 1304.28 1599.8C1302.36 1597.75 1300.87 1595.23 1299.8 1592.24C1298.77 1589.2 1298.26 1585.75 1298.26 1581.86C1298.26 1577.98 1298.84 1574.55 1300 1571.56C1301.2 1568.52 1302.81 1565.98 1304.82 1563.93C1306.82 1561.88 1309.17 1560.32 1311.84 1559.25C1314.52 1558.17 1317.37 1557.64 1320.41 1557.64C1322.33 1557.64 1324.04 1557.77 1325.56 1558.04C1327.12 1558.31 1328.46 1558.62 1329.58 1558.98C1330.74 1559.33 1331.67 1559.69 1332.39 1560.05C1333.1 1560.41 1333.59 1560.67 1333.86 1560.85L1331.99 1566.2C1331.58 1565.94 1331 1565.65 1330.25 1565.33C1329.49 1565.02 1328.62 1564.71 1327.64 1564.4C1326.7 1564.09 1325.65 1563.84 1324.49 1563.66C1323.38 1563.44 1322.24 1563.33 1321.08 1563.33C1318.62 1563.33 1316.42 1563.75 1314.45 1564.6C1312.49 1565.45 1310.82 1566.67 1309.43 1568.28C1308.05 1569.89 1306.98 1571.85 1306.22 1574.17C1305.51 1576.44 1305.15 1579.01 1305.15 1581.86C1305.15 1584.63 1305.46 1587.15 1306.09 1589.43C1306.76 1591.7 1307.74 1593.66 1309.03 1595.31C1310.33 1596.92 1311.93 1598.17 1313.85 1599.06C1315.81 1599.95 1318.09 1600.4 1320.68 1600.4C1323.67 1600.4 1326.14 1600.09 1328.1 1599.46C1330.07 1598.84 1331.54 1598.28 1332.52 1597.79L1334.19 1603.14C1333.88 1603.37 1333.32 1603.66 1332.52 1604.01C1331.72 1604.33 1330.71 1604.64 1329.51 1604.95C1328.3 1605.26 1326.9 1605.53 1325.29 1605.75C1323.69 1605.98 1321.95 1606.09 1320.07 1606.09ZM1353.01 1600.6C1354.48 1600.6 1355.77 1600.58 1356.89 1600.53C1358.05 1600.44 1359.01 1600.31 1359.76 1600.13V1589.76C1359.32 1589.54 1358.58 1589.36 1357.56 1589.22C1356.57 1589.05 1355.37 1588.96 1353.94 1588.96C1353.01 1588.96 1352 1589.02 1350.93 1589.16C1349.91 1589.29 1348.95 1589.58 1348.05 1590.03C1347.21 1590.43 1346.49 1591.01 1345.91 1591.77C1345.33 1592.48 1345.04 1593.44 1345.04 1594.65C1345.04 1596.88 1345.76 1598.44 1347.18 1599.33C1348.61 1600.18 1350.55 1600.6 1353.01 1600.6ZM1352.47 1569.42C1354.97 1569.42 1357.07 1569.75 1358.76 1570.42C1360.5 1571.05 1361.88 1571.96 1362.91 1573.16C1363.98 1574.32 1364.74 1575.73 1365.19 1577.38C1365.63 1578.99 1365.85 1580.77 1365.85 1582.73V1604.48C1365.32 1604.57 1364.56 1604.71 1363.58 1604.88C1362.64 1605.02 1361.57 1605.15 1360.37 1605.29C1359.16 1605.42 1357.85 1605.53 1356.42 1605.62C1355.04 1605.75 1353.65 1605.82 1352.27 1605.82C1350.31 1605.82 1348.5 1605.62 1346.85 1605.22C1345.2 1604.82 1343.77 1604.19 1342.57 1603.34C1341.36 1602.45 1340.43 1601.29 1339.76 1599.87C1339.09 1598.44 1338.75 1596.72 1338.75 1594.71C1338.75 1592.79 1339.13 1591.14 1339.89 1589.76C1340.69 1588.38 1341.76 1587.26 1343.1 1586.41C1344.44 1585.57 1346 1584.94 1347.79 1584.54C1349.57 1584.14 1351.44 1583.94 1353.41 1583.94C1354.03 1583.94 1354.68 1583.98 1355.35 1584.07C1356.02 1584.12 1356.64 1584.21 1357.22 1584.34C1357.85 1584.43 1358.38 1584.52 1358.83 1584.61C1359.27 1584.7 1359.59 1584.76 1359.76 1584.81V1583.07C1359.76 1582.04 1359.65 1581.04 1359.43 1580.06C1359.21 1579.03 1358.81 1578.14 1358.23 1577.38C1357.65 1576.58 1356.84 1575.95 1355.82 1575.51C1354.84 1575.02 1353.54 1574.77 1351.94 1574.77C1349.88 1574.77 1348.08 1574.93 1346.51 1575.24C1345 1575.51 1343.86 1575.8 1343.1 1576.11L1342.37 1570.96C1343.17 1570.6 1344.51 1570.26 1346.38 1569.95C1348.25 1569.6 1350.28 1569.42 1352.47 1569.42ZM1376.19 1571.29C1377.62 1570.93 1379.51 1570.55 1381.88 1570.15C1384.24 1569.75 1386.96 1569.55 1390.04 1569.55C1392.81 1569.55 1395.11 1569.95 1396.94 1570.76C1398.76 1571.51 1400.21 1572.61 1401.29 1574.03C1402.4 1575.42 1403.18 1577.09 1403.63 1579.05C1404.07 1581.02 1404.3 1583.18 1404.3 1585.54V1605.08H1398.07V1586.88C1398.07 1584.74 1397.92 1582.91 1397.6 1581.4C1397.34 1579.88 1396.87 1578.65 1396.2 1577.71C1395.53 1576.78 1394.64 1576.11 1393.52 1575.71C1392.41 1575.26 1391.02 1575.04 1389.37 1575.04C1388.7 1575.04 1388.01 1575.06 1387.3 1575.1C1386.59 1575.15 1385.89 1575.22 1385.22 1575.31C1384.6 1575.35 1384.02 1575.42 1383.48 1575.51C1382.99 1575.6 1382.64 1575.66 1382.41 1575.71V1605.08H1376.19V1571.29ZM1412.68 1587.75C1412.68 1584.67 1413.12 1582 1414.01 1579.72C1414.91 1577.4 1416.09 1575.48 1417.56 1573.97C1419.03 1572.45 1420.73 1571.31 1422.65 1570.55C1424.57 1569.8 1426.53 1569.42 1428.54 1569.42C1433.22 1569.42 1436.81 1570.89 1439.31 1573.83C1441.81 1576.73 1443.06 1581.17 1443.06 1587.15C1443.06 1587.42 1443.06 1587.77 1443.06 1588.22C1443.06 1588.62 1443.04 1589 1442.99 1589.36H1419.17C1419.44 1592.97 1420.48 1595.72 1422.31 1597.59C1424.14 1599.46 1427 1600.4 1430.88 1600.4C1433.06 1600.4 1434.89 1600.22 1436.37 1599.87C1437.88 1599.46 1439.02 1599.08 1439.78 1598.73L1440.65 1603.95C1439.89 1604.35 1438.55 1604.77 1436.63 1605.22C1434.76 1605.66 1432.62 1605.89 1430.21 1605.89C1427.18 1605.89 1424.54 1605.44 1422.31 1604.55C1420.13 1603.61 1418.32 1602.34 1416.89 1600.73C1415.46 1599.13 1414.39 1597.23 1413.68 1595.05C1413.01 1592.82 1412.68 1590.38 1412.68 1587.75ZM1436.57 1584.34C1436.61 1581.53 1435.9 1579.23 1434.43 1577.45C1433 1575.62 1431.01 1574.7 1428.47 1574.7C1427.04 1574.7 1425.77 1574.99 1424.65 1575.57C1423.58 1576.11 1422.67 1576.82 1421.91 1577.71C1421.15 1578.61 1420.55 1579.63 1420.1 1580.79C1419.7 1581.95 1419.44 1583.14 1419.3 1584.34H1436.57ZM1462.44 1605.75C1458.6 1605.66 1455.88 1604.84 1454.27 1603.28C1452.67 1601.72 1451.86 1599.29 1451.86 1595.98V1554.23L1458.09 1553.16V1594.98C1458.09 1596.01 1458.18 1596.85 1458.35 1597.52C1458.53 1598.19 1458.82 1598.73 1459.22 1599.13C1459.63 1599.53 1460.16 1599.84 1460.83 1600.07C1461.5 1600.24 1462.33 1600.4 1463.31 1600.53L1462.44 1605.75ZM1482.07 1600.6C1483.55 1600.6 1484.84 1600.58 1485.95 1600.53C1487.11 1600.44 1488.07 1600.31 1488.83 1600.13V1589.76C1488.39 1589.54 1487.65 1589.36 1486.62 1589.22C1485.64 1589.05 1484.44 1588.96 1483.01 1588.96C1482.07 1588.96 1481.07 1589.02 1480 1589.16C1478.97 1589.29 1478.01 1589.58 1477.12 1590.03C1476.27 1590.43 1475.56 1591.01 1474.98 1591.77C1474.4 1592.48 1474.11 1593.44 1474.11 1594.65C1474.11 1596.88 1474.82 1598.44 1476.25 1599.33C1477.68 1600.18 1479.62 1600.6 1482.07 1600.6ZM1481.54 1569.42C1484.04 1569.42 1486.13 1569.75 1487.83 1570.42C1489.57 1571.05 1490.95 1571.96 1491.98 1573.16C1493.05 1574.32 1493.81 1575.73 1494.25 1577.38C1494.7 1578.99 1494.92 1580.77 1494.92 1582.73V1604.48C1494.39 1604.57 1493.63 1604.71 1492.65 1604.88C1491.71 1605.02 1490.64 1605.15 1489.43 1605.29C1488.23 1605.42 1486.91 1605.53 1485.49 1605.62C1484.1 1605.75 1482.72 1605.82 1481.34 1605.82C1479.37 1605.82 1477.57 1605.62 1475.92 1605.22C1474.27 1604.82 1472.84 1604.19 1471.63 1603.34C1470.43 1602.45 1469.49 1601.29 1468.82 1599.87C1468.15 1598.44 1467.82 1596.72 1467.82 1594.71C1467.82 1592.79 1468.2 1591.14 1468.96 1589.76C1469.76 1588.38 1470.83 1587.26 1472.17 1586.41C1473.51 1585.57 1475.07 1584.94 1476.85 1584.54C1478.64 1584.14 1480.51 1583.94 1482.48 1583.94C1483.1 1583.94 1483.75 1583.98 1484.42 1584.07C1485.08 1584.12 1485.71 1584.21 1486.29 1584.34C1486.91 1584.43 1487.45 1584.52 1487.9 1584.61C1488.34 1584.7 1488.65 1584.76 1488.83 1584.81V1583.07C1488.83 1582.04 1488.72 1581.04 1488.5 1580.06C1488.27 1579.03 1487.87 1578.14 1487.29 1577.38C1486.71 1576.58 1485.91 1575.95 1484.88 1575.51C1483.9 1575.02 1482.61 1574.77 1481 1574.77C1478.95 1574.77 1477.14 1574.93 1475.58 1575.24C1474.07 1575.51 1472.93 1575.8 1472.17 1576.11L1471.43 1570.96C1472.24 1570.6 1473.57 1570.26 1475.45 1569.95C1477.32 1569.6 1479.35 1569.42 1481.54 1569.42ZM1506.13 1568.28C1508.67 1567.3 1511.15 1566.05 1513.56 1564.53C1515.97 1562.97 1518.17 1561.03 1520.18 1558.71H1524.6V1605.08H1518.37V1567.34C1517.84 1567.83 1517.17 1568.35 1516.37 1568.88C1515.61 1569.42 1514.76 1569.93 1513.82 1570.42C1512.93 1570.91 1511.97 1571.38 1510.95 1571.83C1509.97 1572.27 1509.01 1572.65 1508.07 1572.96L1506.13 1568.28ZM1571.2 1577.25C1571.2 1586.44 1568.91 1593.4 1564.31 1598.13C1559.76 1602.81 1552.98 1605.17 1543.97 1605.22L1543.77 1600C1546.58 1600 1549.1 1599.73 1551.33 1599.2C1553.6 1598.66 1555.59 1597.81 1557.28 1596.65C1558.98 1595.45 1560.39 1593.91 1561.5 1592.04C1562.66 1590.16 1563.51 1587.86 1564.04 1585.14C1562.88 1585.68 1561.57 1586.12 1560.1 1586.48C1558.62 1586.79 1557.11 1586.95 1555.54 1586.95C1552.91 1586.95 1550.68 1586.57 1548.85 1585.81C1547.02 1585.01 1545.53 1583.96 1544.37 1582.67C1543.21 1581.33 1542.36 1579.81 1541.83 1578.12C1541.34 1576.38 1541.09 1574.57 1541.09 1572.7C1541.09 1571.05 1541.38 1569.33 1541.96 1567.54C1542.54 1565.76 1543.41 1564.13 1544.57 1562.66C1545.77 1561.19 1547.29 1559.98 1549.12 1559.04C1550.95 1558.11 1553.11 1557.64 1555.61 1557.64C1558.15 1557.64 1560.39 1558.09 1562.3 1558.98C1564.27 1559.87 1565.9 1561.16 1567.19 1562.86C1568.53 1564.55 1569.53 1566.63 1570.2 1569.08C1570.87 1571.49 1571.2 1574.21 1571.2 1577.25ZM1556.21 1581.86C1557.78 1581.86 1559.25 1581.73 1560.63 1581.46C1562.01 1581.15 1563.35 1580.7 1564.65 1580.12C1564.69 1579.63 1564.71 1579.16 1564.71 1578.72C1564.71 1578.23 1564.71 1577.74 1564.71 1577.25C1564.71 1575.33 1564.58 1573.5 1564.31 1571.76C1564.04 1569.97 1563.55 1568.44 1562.84 1567.14C1562.17 1565.8 1561.26 1564.75 1560.1 1564C1558.94 1563.19 1557.46 1562.79 1555.68 1562.79C1554.21 1562.79 1552.96 1563.1 1551.93 1563.73C1550.91 1564.35 1550.06 1565.16 1549.39 1566.14C1548.72 1567.07 1548.23 1568.12 1547.92 1569.28C1547.65 1570.4 1547.51 1571.49 1547.51 1572.56C1547.51 1575.6 1548.23 1577.92 1549.66 1579.52C1551.13 1581.08 1553.31 1581.86 1556.21 1581.86Z" fill="black"/>
<defs>
<linearGradient id="paint0_linear_14_4" x1="1000" y1="570.509" x2="1045.34" y2="806.131" gradientUnits="userSpaceOnUse">
<stop stop-color="#2400FF"/>
<stop offset="0.765625" stop-color="#0163F5" stop-opacity="0.82"/>
</linearGradient>
<linearGradient id="paint1_linear_14_4" x1="1490.23" y1="1228.06" x2="460.14" y2="1410.5" gradientUnits="userSpaceOnUse">
<stop offset="0.213189" stop-color="#07B8F0"/>
<stop offset="0.975202" stop-color="#1C0362" stop-opacity="0.94"/>
</linearGradient>
</defs>
</svg>
